<?xml version="1.0" encoding="utf-8"?>

<!DOCTYPE svg PUBLIC "-//W3C//DTD SVG 1.1//EN" "http://www.w3.org/Graphics/SVG/1.1/DTD/svg11.dtd">
<svg version="1.1" id="Layer_1" xmlns="http://www.w3.org/2000/svg" xmlns:xlink="http://www.w3.org/1999/xlink" x="0px" y="0px"
	 viewBox="0 0 597.929 1644.821" enable-background="new 0 0 597.929 1644.821" xml:space="preserve">
<g>
	<path d="M302.469,265.725c-10.729,1.138-5.956-2.9-10.927,0.604c-1.186,0.836-2.016,0.994-2.939-0.24
		c-1.088-1.455-3.851-0.258-3.939-3.74c-4.457,11.385-11.592,18-12.858,16.915c-2.536-2.173-4.198,0.41-5.989,1.079
		c-4.389,1.64-8.294,0.405-12.606-0.42c-4.154-0.795-6.732-3.368-9.943-5.3c-4.528-2.726-5.906-7.411-7.192-11.961
		c-2.43-8.604-2.48-10.659-0.53-18.505c2.801-11.27,4.235-16.265,9.492-21.075c10.066-9.213,14.709-6.414,25.093-5.645
		c1.248,0.092,2.59,1.233,3.567,2.215c8.095,8.132,4.364-0.295,10.536,17.745c2.376-3.649,4.738-3.692,7.947-1.357
		c1.141,0.83,3.256,0.292,4.829,1.83c0.721,0.705,3.142-0.348,4.98,0.24c2.183,0.699,3.08-30.096-4.258-53.433
		c-1.614-5.133-11.777-0.385-14.317-2.609c-1.047-0.917-1.941,0.357-2.517,0.854c-2.96,2.553-3.982,2.751-7.292,0.919
		c-2.03-1.124-0.999-3.764-5.607,1.464c-2.858,3.242-8.269,11.379-16.374,9.689c-4.427-0.923-9.248,0.768-13.366-2.242
		c-8.028-5.867-14.593-12.501-14.106-23.501c0.179-4.045-0.934-8.135,0.08-12.157c6.563-26.043,30.186-25.22,41.398-13.804
		c3.589,3.654,5.415,8.263,8.883,12.006c1.97-2.245,5.13-4.897,6.627-2.323c0.561,0.964-0.545,1.328-1.097,1.639
		c-2.401,1.358-3.392,3.854-4.79,5.969c-1.724,2.608,1.207,4.296-0.496,8.96c-0.253,0.692-0.719,1.897,0.648,2.046
		c2.185,0.237-0.385-4.444,1.833-5.088c2.447-0.71,5.714,2.775,3.285,8.905c-0.281,0.708-2.26,1.744-0.379,2.441
		c1.203,0.445,1.623-1.073,2.103-2.212c2.946-6.989-0.641-16.082-0.334-19.078c0.48-4.685,0.478-3.332,22.504-0.027
		c6.413,0.962,3.313-3.672,10.168-14.074c0.962-1.459,1.217-2.904,0.664-4.611c-0.731-2.255-0.991-4.66-2.045-6.817
		c-1.894,0.587-1.228,3.253-3.602,3.698c4.164-4.696,3.004-9.244-0.025-13.976c-1.574,1.555-1.867,3.7-2.821,5.468
		c-3.863,7.163-1.693,5.284-1.118,9.242c0.116,0.8,0.23,1.702-0.695,1.993c-0.816,0.257-1.371-0.723-2.867-2.474
		c-0.61,0.144-0.617,0.541-0.597,0.924c0.118,2.205-0.942,4.993,0.703,6.395c0.91,0.775,3.61-0.549,5.584-0.943
		c-0.632,3.769-2.916,6.738-4.294,10.088c-0.271,0.658-0.514,1.874-1.455,1.437c-0.961-0.447-0.485-0.663,0.713-3.176
		c-6.447,0.854-7.446-5.092-8.196-1.153c-0.089,0.469,0.011,1.09-0.258,1.383c-0.56,0.611-0.545,2.731-1.524,1.689
		c-0.781-0.831-4.483,0.277-2.439-2.88c0.29-0.448,0.573-1.341,0.351-1.611c-3.146-3.829-1.294-8.638-2.608-12.83
		c-2.903-9.26-1.538-18.766-1.583-28.214c-0.041-8.567-0.959-16.616,2.024-27.14c1.909-6.734-3.748-5.985,2.291-17.302
		c6.292-11.79,1.892-7.471,14.437-26.002c3.554-5.25,15.408-13.844,16.409-13.149c2.487,1.728,5.618,1.488,8.246,1.862
		c4.758,0.678,9.94,1.913,14.628-0.841c0.772-0.454,1.324-0.542,2.123-0.15c9.479,4.645,12.982-0.174,14.992,4.061
		c0.684-1.237-0.667-1.165-0.407-2.006c6.55,0.528,3.437-2.873,10.806,3.046c8.815,7.081,8.216,20.398,11.46,30.066
		c0.268,0,0.475,0.058,0.625-0.009c1.153-0.52,1.624-2.828,1.756-2.595c1.067,1.887,3.476,1.81,4.598,3.548
		c10.312,15.978-10.368,24.739-4.53,17.996c2.836-3.277,2.892-13.498,0.702-13.559c-1.024-0.029-2.043-0.252-2.983-0.383
		c1.392,17.334,1.898,27.133-3.723,43.609c-3.112,9.121-6.685,8.808-9.72,11.108c-0.372,0.282-1.197,0.256-1.682,0.056
		c-5.414-2.233-10.44-0.335-16.238,1.254c2.284,0.979,3.238,2.394,4.082,3.855c9.069,15.702,3.947,7.465,8.109,11.196
		c0.223,0.2,0.423,0.215,0.701-0.071c3.428-3.535,7.264-1.121,10.949-0.679c1.053,0.126,0.548,1.543,1.279,2.067
		c1.551-1.702,4.032-3.853,5.273-3.864c4.033-0.037,4-3.655,6.044-5.269c1.815-1.433,2.63-3.702,4.833-4.909
		c20.742-11.363,41.009,4.782,41.041,22.226c0.021,11.69,1.577,5.904,0.053,9.505c-0.297,0.701-1.114,1.276-0.894,2.09
		c1.096,4.053-1.02,7.686-2.908,10.429c-10.385,15.085-14.445,11.088-17.423,12.148c-14.098,5.016-21.817-7.115-26.219-12.432
		c-1.154-1.394-1.93-2.894-1.13-5.631c-6.085,4.776-11.48,0.848-10.115,4.273c5.086,12.763,9.33,34.272,11.42,39.462
		c1.225,3.042,0.51-0.321,7.042,1.003c6.565,1.33,13.296-2.273,16.639-0.421c3.346,1.853-0.765-2.794,3.643-6.124
		c4.895-3.697,5.917-8.956,13.288-10.181c4.862-0.808,15.555-4.145,23.876,6.692c5.827,7.589,9.896,8.602,12.306,22.032
		c2.412,13.443-1.105,24.201-7.135,31.088c-3.919,4.476-10.049,4.054-11.326,4.975c-2.938,2.12-24.321,6.777-31.747-15.743
		c-1.625-4.928,4.62-6.988,2.65-8.262c-0.956-0.618-0.054-1.132,0.28-1.642c2.589-3.953,2.476-8.43,2.18-12.824
		c-0.135-2.013-2.275-2.185-3.963-2.499c-2.846-0.53-2.291,5.273-2.47,7.126c-0.249,2.583,4.611,2.224,2.689,5.841
		c-0.999,1.88-2.204,3.65-0.984,5.932c1.335,2.498-5.372,4.829-7.288,1.558c-0.819-1.399-2-1.675-3.418-1.704
		c-12.581-0.256-11.21-0.888-11.093,0.871c0.763,11.48,3.896,45.629,0.888,57.309c3.75,0.714,4.908,1.766,5.093,5.731
		c0.133,2.854-0.112,5.786-1.318,8.484c-0.249,0.557-0.478,1.072-0.346,1.661c0.011,0.05,12.234,346.176,12.147,346.635
		c-0.679,3.582,1.952,1.504,17.178,6.643c47.664,16.09,95.599,65.232,99.745,84.068c1.796,8.162,6.552,9.453,11.511,30.739
		c3.227,13.851,4.053,9.945,5.406,26.446c0.373,4.554-0.164,9.134,0.633,13.651c0.183,1.038,0.559,2.282,0.181,3.138
		c-3.025,6.86-0.401,18.569-4.19,37.3c-10.719,52.984-24.296,99.682-7.566,124.072c4.597,6.701-6.161,25.082-8.826,23.256
		c-13.526-9.27-29.193,0.711-35.61,15.966c-14.668,34.874-10.854,34.425-12.944,41.303c-2.284,7.514-6.304,59.191-3.83,66.728
		c0.38,1.158,0.455,2.262,0.381,3.406c-0.433,6.666,2.407,12.838,2.857,19.393c1.271,18.511,16.941,38.18,30.788,51.442
		c1.411,1.351,3.822,0.764,5.263,2.532c2.654,3.257,6.54,3.344,10.341,3.642c0.719,0.056,1.37,0.972,2.046,1.487
		c2.536-4.83,2.632-0.378,8.95-2.702c16.309-5.998,10.658-2.873,19.279,9.073c2.421,3.354,1.241,6.464-0.311,9.063
		c-12.673,21.226-5.7,36.466-0.897,57.962c8.42,37.681,14.438,45.107,14.871,57.013c0.036,1.002,0.965,1.401,1.316,2.293
		c14.025,35.735,2.271,107.086-5.062,129.641c-1.525,4.692-7.67,17.595-8.022,21.516c-0.156,1.737-1.666,2.761-2.336,4.24
		c-6.118,13.522-6.489,18.159-26.786,43.914c-2.982,3.783-6.083,7.668-10.612,10.104c-2.567,1.381-4.138,4.213-6.486,6.115
		c-28.008,22.686-78.715,47.672-99.557,51.737c-3.928,0.766-8.007,1.105-11.667,2.906c-1,0.492-56.421,9.327-60.744,8.625
		c-1.302-0.212-3.044,1.02-4.274,1.979c-2.396,1.87-4.682,0.429-10.871,1.882c-8.352,1.962-10.198-4.057-17.819-3.032
		c-9.937,1.339-84.724-4.249-124.262-20.437c-53.423-21.873-57.986-36.369-74.574-44.968c-13.444-6.97-69.089-57.03-76.944-135.1
		c-4.317-42.908,40.101-134.674,42.799-177.808c0.74-11.837-3.344-20.324-9.634-27.799c-2.221-2.64,3.047-13.505,11.456-17.142
		c5.435-2.351,8.931,8.531,23.279,6.23c4.104-0.658,5.048,0.129,5.817-1.467c1.326-2.751,4.046,0.628,7.448-3.115
		c3.164-3.483,25.876-17.252,39.703-57.025c19.826-57.032,11.398-116.322-2.595-139.794c-5.422-9.095-5.589-0.397-7.394-7.807
		c-0.785-3.223-5.829-13.494-13.597-11.05c-3.257,1.024-6.703,1.273-9.848,2.636c-2.043,0.885-10.967-8.663-11.952-12.291
		c-0.55-2.027,1.551-6.218,3.28-7.543c2.031-1.556,2.71-4.22,3.595-6.423c18.732-46.611-16.172-104.074-6.142-159.985
		c1.623-9.047,1.729-26.708,8.298-40.161c10.042-20.565,10.258-32.724,22.187-45.737c16.19-17.662,11.72-22.138,65.182-51.68
		c13.08-7.228,48.386-17.907,65.631-19.234c22.136-1.705,20.829-0.929,22.121-2.938c2.167-3.369,3.234-8.023,7.386-9.402
		c3.304-1.098,6.134-3.239,10.002-3.386c6.656-0.254,19.637-5.943,24.875-24.309c0.285-1,4.896-262.036-1.866-269.141
		c-5.795-6.089-3.812-6.944-16.685-10.467c-9.125-2.497-10.677-21.459-8.962-31.774
		C301.285,281.939,303.366,273.994,302.469,265.725z M405.875,1317.149c1.161,1.279,5.744,0.725,6.619-0.828
		c1.454-2.578-5.563,0.236-6.584,0.865c-1.426-0.662-2.372,0.075-3.194,1.118c-0.38,0.482-1.741,0.505-0.829,1.617
		c0.616,0.752,1.278,0.361,2.062,0.146C405.553,1319.627,404.624,1317.696,405.875,1317.149z M80.57,1289.173
		c2.508-0.102,3.296,1.821,4.041,3.967c2.59-8.762,3.167-9.269,2.167-10.112c-1.276-1.076-7.916-2.295-9.808-1.687
		c2.996,0.735,5.802,1.423,8.607,2.111c-0.088,0.324-0.176,0.648-0.264,0.972c-3.407-2.097-7.727-0.569-10.969-3.396
		c-0.519-0.452-0.369,0.3-0.544,0.447c-2.237,1.869-2.462,4.685-3.609,7.247c1.976-0.774,8.127,1.11,9.127,1.527
		c1.625,0.677,1.197-0.317,1.259-1.079L80.57,1289.173z M359.427,1337.905c0.376,1.714-0.853,3.031-1.319,4.755
		c15.887-0.053,14.608-0.596,15.864-4.639c0.392-1.261-0.343-1.839-14.647-0.017c-0.004-1.018-0.381-1.914-0.231-3.064
		c0.129-0.984,1.933-16.71,1.115-17.271c-2.94-2.017,1.877-0.694,0.424-4.657c-0.808-2.203-4.349,4.739-0.631,6.897
		c-1.014,0.725-2.972,0.159-2.921,2.143c0.117,4.616-1.504,9.001-1.825,13.57c-0.107,1.527-0.013,3.871-2.939,2.49
		c-0.406-0.192-11.675,0.961-14.897,0.926c-1.518-0.017-2.256-0.261-1.966,1.404c0.219,1.258-1.358,3.585,1.877,3.313
		c16.944-1.426,16.056-0.636,17.715,1.1c-4.623,0.507-2.94,8.703-4.61,12.888c-0.506,1.269-0.236,1.525,0.948,2.046
		c1.579,0.693,1.453-0.047,1.702-1.156c0.305-1.359,0.962-2.598,1.299-4.016c0.753-3.165,0.988-6.392,1.63-9.561
		C356.565,1342.332,358.452,1340.359,359.427,1337.905z M291.511,113.171c-1.591-2.266-1.453-4.907-1.176-7.546
		c-2.865,0.325-0.263,6.811-0.964,9.885c-1.027,4.503,3.085,15.984,3.024,20.828c-0.016,1.281-0.248,2.969,0.917,4.8
		c0-13.299,9.736-8.962,10.681-12.095c1.216-4.032,3.502-7.619,5.176-11.6c-7.066-1.804-3.858-4.966-12.722,12.964
		c-0.185,0.373-0.323,1.04-1.004,0.571c-0.392-0.27-0.272-0.562-0.057-0.961c2.047-3.8,3.075-8.094,5.641-11.647
		c1.624-2.249,2.023-4.283-1.182-5.673c-1.935,3.619-3.876,7.249-5.816,10.879c-0.249-0.135-0.497-0.269-0.746-0.404
		c0.592-1.465,0.759-2.985,1.517-4.501c4.12-8.239,5.022-6.749,2.51-9.795c-0.664-0.805-1.82,0.481-1.888,1.016
		c-0.383,3.043-2.595,5.298-3.305,8.171c-0.136,0.55,0.342,1.638-0.843,1.394c-0.94-0.193-1.006-1.045-0.783-1.895
		c0.388-1.477,1.189-2.871,0.917-4.481c4.23-3.823,5.352-8.715,3.191-14.554C293.486,103.539,290.362,107.883,291.511,113.171z
		 M364.895,1179.057c4.693-1.315,4.69-1.315,4.013-6.219c-0.758-5.492,3.215-4.055-18.266-2.783
		c-2.054,0.122-1.745,0.534-1.752,18.107c-0.001,1.634-0.651,1.793,11.648,1.939c10.513,0.125,8.395-0.001,8.63-5.524
		c0.006-0.147-0.129-0.3-0.239-0.538c-5.972,1.381-9.149-2.79-3.962-5.03L364.895,1179.057z M403.573,125.734
		c0.38-2.074,2.688-3.007,3.283-2.546c0.936,0.725,0.015,1.701-0.107,3.126c4.543-3.028,6.892-4.966,12.034,5.173
		c0.381,0.752,1.59,1.577,0.302,2.469c-1.115,0.772-1.68-0.111-2.288-0.954c-0.938-1.301-3.223-2.307-3.569,1.492
		c-1.496,16.418,4.808,31.539,6.652,26.74c0.662-1.722,1.012-3.475,0.738-5.299c-0.11-0.736,0.351-1.746,0.647-1.158
		c0.865,1.722,3.76,2.264,2.898,4.964c-1.157,3.624-1.719,7.468-4.184,10.615c5.093-2.492,7.832-6.416,8.509-12.044
		c0.12-1,0.926-15.619-2.887-24.282c-3.401-7.725-9.476-11.408-17.262-13.373c-2.533-0.639-3.28,2.009-5.381,2.005
		c-0.44-0.001,0.687,1.951,0.613,3.091c-6.092-2.716-11.821,11.683-10.869,23.29c0.399,4.861,3.292,6.711,4.577,12.221
		c1.226,5.259,6.521,8.654,7.521,7.863c0.393-0.311,0.296-0.868,0.076-1.038c-1.698-1.306-1.395-3.53-2.442-5.128
		C395.638,152.588,399.008,131.466,403.573,125.734z M241.61,142.645c-0.198-0.307-0.396-0.614-0.595-0.921
		c-0.966,2.372-4.164,2.873-4.709,5.626c-0.654,3.301,1.914,1.109-1.104,8.394c-1.619-2.175-1.035-4.331-0.466-6.663
		c-1.913,1.816-3.194,4.256-6.165,4.137c-0.185-0.007-1.956,5.721-1.245,8.179c0.777,2.688-0.661,5.237,0.12,7.594
		c4.65-0.292,3.902,4.863,6.661,6.435c-1.052-5.703-2.604-10.103,1.551-8.183c-0.055,1.144-1.591,0.394-1.825,1.214
		c0.509,1.248,2.566,0.568,2.285,1.204c-1.529,3.452,3.017,5.844,1.407,9.184c-0.031,0.065,0.184,0.335,0.328,0.385
		c2.164,0.754,2.54,7.448,6.792,5.225c-3.929,8.702,17.449,2.138,19.842-1.202c7.95-11.094,7.557-16.739,4.011-30.099
		c-1.74-6.555-11.276-13.208-18.304-14.566c-6.483-1.253-5.777-0.812-8.641,4.126C241.553,142.712,241.61,142.645,241.61,142.645z
		 M266.118,648.763c-12.112,3.571-42.765,7.348-59.828,17.554c-1.002,0.599-25.01,13.958-29.469,17.32
		c-10.373,7.821-27.869,25.987-27.984,26.069c-5.307,3.782-6.691,8.177-10.73,14.699c-0.341,0.551-1.147,1.021-0.72,1.759
		c0.409,0.707,1.289,0.405,1.879,0.301c10.661-1.881,13.884,2.491,15.767-3.103c5.156-15.315,61.462-62.702,108.594-72.596
		c0.807-0.169,2.879,0.091,2.498-2.021c3.154,2.039,5.779-0.376,8.628-0.906C271.794,647.479,269.062,649.002,266.118,648.763z
		 M321.754,239.738c1.117,1.079,1.018,3.067,2.904,3.517c-0.598,0.741-2.628-0.974-1.84,1.131c0.849,2.269,0.778,4.752,1.727,7.001
		c2.045-2.936,2.86-6.352,4.933-9.114c2.686-3.58,3.025-9.703,0.811-13.869c-2.204,2.254-4.014,9.11-8.605,11.401
		c9.124-18.155,2.192,0.713,9.657-20.592c0.088-0.25,0.077-0.764-0.048-0.825c-2.574-1.243-1.495-3.663-1.814-5.604
		c-13.727-83.455-6.696-47.687-13.047-70.155c-2.495,1.655-4.492,9.346-6.596,13.789c-0.347,0.732,0.268,1.291,0.721,1.772
		c4.811,5.11,0.855,19.365-3.701,24.165c-1.616,1.703-4.027-0.303-5.825,0.659c4.367,21.512,7.398,32.277,5.761,53.791
		c-0.073,0.96-0.582,2.363,1.441,2.491c3.501,0.222,0.44,4.374,11.852-15.525c3.354,1.083-2.164,5.207-7.257,16.855
		c1.958,0.119,4.811,0.499,6.342,1.282C322.035,243.373,319.711,239.034,321.754,239.738z M372.233,902.594
		c1.383,3.411,0.228,7.002,0.904,10.483c0.719-11.815,0.109-10.409-1.01-10.382c-0.922-7.32-0.065-14.675-0.446-22.003
		c-0.052-1.005,1.852-0.83,1.044-1.973c-2.228-3.154-0.826-17.531-1.313-27.206c-0.134-2.67-1.389-5.897,1.319-8.326
		c0.302-0.271-0.063-0.95-0.621-1.545c-1.755-1.874-1.268-5.091,0.617-6.292c-2.637-2.173,1.547-1.271-0.136-3.296
		c-3.471-4.175,1.014-5.764-0.609-9.832c-0.198,0.467-0.358,0.844-0.875,2.065c0-0.071,0.185-44.566,0.12-44.595
		c-1.337-0.604-0.994-2.252-0.664-2.732c2.148-3.13-1.676-6.771,0.951-9.882c0.252-0.299-0.245-2.114-0.404-3.14
		c-1.658-10.75,0.696-15.084-0.182-20.699c-0.234-1.498,0.998-2.803,0.187-3.776c-1.549-1.861,1.129-4.377-1.167-5.951
		c0.225-1.002-0.44-327.892-4.072-333.35c1.407-1.657,1.771-3.573,1.451-5.695c-0.373-2.471-0.601-32.592-0.445-33.197
		c0.293-1.134-0.203-2.192-1.322-2.913c-0.954-0.615-1.789-9.153-0.529-8.938c2.89,0.495,0.392-9.809,1.718-22.22
		c0.17-1.592-1.628-0.881-1.418-0.007c0.007,0.028-0.151,21.118-0.151,21.144c-0.743-0.067-1.049-0.434-1.007-0.971
		c0.365-4.65-0.733-29.414-0.582-34.858c0.053-1.894,1.09-12.119-1.059-11.012c-3.569,1.838-0.655,2.298-1.117,9.733
		c-0.252,4.069,1.125,8.197-0.011,12.313c-0.597,2.164,1.373,3.951,0.89,6.056c-1.682,7.335,0.6,9.895,0.365,45.494
		c-0.047,7.122-0.476,14.233,0.216,21.355c0.32,3.296,1.053,6.854,0.188,9.891c-1.289,4.528,1.598,8.993-0.528,13.31
		c7.247,23.568,2.8,885.468,9.797,517.653c0.127-6.684-1.166-13.34-0.402-20.041c1.399,0.196,0.494,1.637,1.38,2.084
		c0-1.528,0-3.01,0-4.518c-0.812,0.183-0.525,1.474-1.74,1.256C372.153,911.566,370.996,907.041,372.233,902.594z M481.4,943.916
		l-0.001,0.024c-0.759-2.257,1.878-2.302,2.747-3.7c-0.119,1-10.347,54.568-8.113,66.165c20.971-24.161,6.032-14.019,14.54-53.36
		c4.344-20.088,4.805-18.291,6.447-20.344c0.61-0.763,2.226-0.133,1.022,1.148c-4.521,4.806-9.033,34.151-8.646,58.259
		c7.44-6.481,10.536-5.365,10.495-9.042c-0.175-15.801,2.03-42.934,5.882-48.065c-3.229,16.17-3.703,32.551-4.294,48.899
		c4.135-0.603,7.859-3.16,12.519-2.169c-25.717-72.958,41.978-143.693-1.136-231.229c-16.488-33.477-38.074-51.165-70.414-68.474
		c-2.081-1.114-31.574-10.28-32.59-10.599c-0.583,11.128,13.142,359.692,13.142,359.692c-2.221,0.536-3.7,3.847-6.658,1.749
		c-1.078-0.765-2.129-0.624-1.909,1.124c3.606,28.679-2.42,36.544,7.16,37.047c0.414,0.022,0.688,0.71,1.426,0.391
		c0.072-2.336,3.261-48.556,3.261-48.556c0.065-0.596,0.049-1.549,1.085-1.345c0.756,0.149,0.608,0.927,0.563,1.447
		c-5.991,68.782-2.787,40.937,6.179,63.673c0.777-10.442,1.658-58.738,4.893-77.292c0.755,1.297,0.869,2.532,0.664,3.935
		c-2.163,14.823-2.955,60.14-3.345,63.587c-1.483,13.126-0.51,9.713,5.873,30.427c-0.571-42.13,1.787-57.918,6.119-98.251
		c0.488,0.873,1.071,1.491,0.944,2.454c-10.252,77.556-4.08,111.675-1.034,134.37c0.337,2.51,0.278,4.411,3.555,3.699
		c1.515-0.329,1.712,1.417,0.959,1.688c-4.2,1.516-3.686,4.551-3.399,8.254c3.593,46.388,2.101,45.683,7.87,70.262
		c0.275-0.043,0.55-0.086,0.825-0.129c-3.143-22.275-4.067-44.698-5.296-67.102c3.755,0.717,0.034,86.981,17.269,93.923
		c0,0-9.333-86.274-10.484-100.048c-5.545-66.367-2.574-58.756-2.605-74.138c-0.005-2.67-0.607-55.794,3.309-57.465
		c-0.554,14.37-1.265,28.532-1.971,42.714c-0.015-4.818,2.866-9.052,2.149-14.186c-0.409-2.923,3.984-30.465,11.2-39.057
		c5.26-6.263-0.038-10.956,5.115-40.846c1.769-10.259,3.18-20.59,6.214-31.267C482.057,943.06,481.386,943.157,481.4,943.916z
		 M292.736,1603.039c-6.503-20.076,12.538-71.108,17.184-90.815c4.755-20.174,7.265-44.4,7.265-44.4
		c4.843-18.953-1.653-65.448-2.762-67.852c-0.36-0.781-1.543-1.687-1.122-2.178c1.989-2.318,0.498-3.788-1.168-5.126
		c0.712-0.818,1.52,0.063,2.15-0.649c-1.698,0.498-2.136-0.959-3.46-1.838c2.412,0.2,2.706-0.908,2.19-2.48
		c-1.651-5.037,0.96-7.113-1.988-8.654c-0.251-0.131-0.803-1.082-0.311-0.966c1.959,0.461,0.796-0.555,0.867-1.277
		c0.306-3.103-1.858-5.376-2.52-8.116c-8.554-35.402-6.815-34.734-10.317-44.833c-0.348-1.004-0.497-2.197-0.004-3.155
		c1.9-3.69-4.069-2.201-2.224-4.269c1.039-1.165,1.782-3.245,3.668-2.87c1.618,0.322,1.497,1.988,1.115,3.392
		c-0.307,1.13,1.861,1.987,2.861,2.507c0.922,0.48,1.596-2.047-0.629-2.628c-0.674-0.176-1.025-0.891-0.824-1.666
		c0.567-2.179,13.105,0.335,15.225,0.347c21.766,0.121,9.915,16.491,20.635-78.274c6.14-54.283,0.837-36.994-6.666-41.053
		c-27.681-14.976-29.105-13.57-31.616-17.664c-0.45-0.734-0.704-0.235-1.094-0.067c-2.371,1.025-6.767-1.603-7.065-4.188
		c-1.465-12.698-4.767-9.84,29.648-10.765c0.592-0.016,1.97-0.163,0.507,1.09c-1.917,1.641,21.699,6.305,20.622,0.928
		c-0.64-3.196,0.13-33.839,0.128-34.848c-0.221-106.836,1.748-96.623-3.281-96.344c-2.123,0.118-3.921-1.562-5.868-1.086
		c-3.513,0.857-6.229-1.269-9.208-2.183c-3.804-1.167-2.439-7.314-2.122-20.641c1.335-56.032,4.426-344.816,4.426-344.816
		c0.395-7.237-2.13-2.567-4.454-3.634c-3.958-1.816-3.863,1.872-6.454,0.344c-0.746-0.44-1.5-0.739-2.445-0.529
		c-6.551,1.455-29.07,0.307-28.754,4.545c-2.026-0.163,0.37-2.198-3.688-1.043c-7.63,2.171-30.435,3.09-29.033,9.568
		c-0.867-2.156-1.875-2.646-3.345-0.9c0,0-8.888,2.515-15.857,6.51c-2.942,1.686-2.001,4.376-1.769,10.294
		c0.028,0.722-4.7,85.22-3.052,105.264c0.109,1.328,0.959,3.25-0.764,5.236c-2.674-39.884,1.526-79.049,2.105-118.323
		c-0.752,0.127-1.271,0.096-1.671,0.3c-34.738,17.743-19.506,2.38-26.375,82.304c-0.424,4.932-1.909,9.764-1.255,14.816
		c-2.389-4.081-0.392,2.123,2.377-70.119c0.625-16.308,3.919-14.228-4.927-9.349c-11.198,6.176-4.293,13.572-8.392,64.626
		c-0.869,10.82,0.865,16.382-0.89,16.33c-1.01-0.03,0.617-63.633,1.265-67.711c0.308-1.938,1.261-3.978,0.442-6.295
		c-6.581,6.591-6.167,2.887-8.564,6.58c-10.042,15.476-10.557,12.125-19.661,29.52c-48.124,91.946,22.522,171.533-7.324,226.011
		c-1.22,2.227-2.491,4.645-3.218,7.495c7.1-2.253,20.526,5.057,24.654,8.284c10.945,8.555,15.307,10.358,27.572,41.648
		c8.045,20.525,10.459,58.783,7.41,73.492c-4.172,20.123,5.508,11.023-14.571,64.235c-7.729,20.484-32.726,45.972-45.245,51.897
		c-8.696,4.115-25.805,10.184-35.245,7.592c23.619,66.102-96.259,177.01-12.305,301.726
		c30.443,45.222,102.836,69.458,134.483,71.831c3.659,0.275,7.399,1.538,11.153,2.174c0,0,6.201-0.316,17.583,1.596
		c3.696,0.62,7.444,0.274,11.096,1.048c2.548,0.54,5.257,1.021,7.695,1.018C287.709,1603.976,290.151,1603.101,292.736,1603.039z
		 M476.965,1211.396c0.296,1.725,0.414,0.347,1.221,15.529c0.281,5.295,4.409-4.691,12.648,3.185
		c-0.326-6.485-0.664-12.901,0.333-19.282c0.427,0.573,0.469,1.144,0.497,1.715c1.127,22.965,4.899,96.438,14.36,115.444
		c0.306,0.616,0.527,1.238-0.662,2.276c-9.513-23.901-9.877-49.163-13.31-74.288c-5.944,10.522-9.626,9.152-9.015,13.188
		c3.685,24.362,1.447,18.2,9.054,48.709c-5.789-9.617-9.47-35.756-10.143-46.909c-0.044-0.721-0.177-2.459-1.405-2.08
		c-7.379,2.279-9.525-6.87-0.814,33.765c-2.625-3.923-4.004-8.777-7.295-31.096c-0.552-3.747-2.799-0.507-9.322-6.313
		c0.826,4.873,1.573,9.276,2.319,13.679c-3.589-4.941-1.473-13.178-6.253-18.081c-2.936-3.011-8.711-14.319-10.128-17.616
		c0.698,9.194,2.536,18.169,4.474,27.163c-2.065-1.798-21.289-92.318-19.658-97.724c0.491-1.627-2.072-0.442-1.384-1.43
		c3.694-5.3-8.038-4.954-2.6-8.073c4.333-2.486,2.306-7.131,2.14-10.301c-0.521-9.917-3.396-49.805-8.684-58.234
		c-1.175,8.577-1.161,16.484,0.001,24.42c-6.511-18.967,4.482-30.707-6.633-38.053c0.414,2.425,0.621,4.651,0.409,6.548
		c-0.616,5.515,1.791,36.469,1.849,37.47c3.141,54.764-0.61,49.582,7.856,54.551c5.216,3.061,3.331,12.738-2.964,12.266
		c-2.541-0.191-2.013-0.415-5.387,16.396c-24.852,123.799-23.79,99.376-11.955,99.826c0.469-1.028-1.171-3.342,0.479-2.674
		c2.122,0.858,8.586,1.188,11.95,8.136c-3.07,1.972-4.036,4.936-3.028,8.455c0.097,0.34-15.349,43.786-15.395,44.066
		c-0.163,1-14.499,68.491-23.38,140.47c-6.527,52.9-6.859,76.205-6.859,76.205c-5.449-26.557,19.126-171.26,27.262-208.223
		c-0.607,0.776-0.855,0.976-0.952,1.234c-19.176,50.815-20.021,49.049-26.668,90.385c-20.903,130.006-13.629,109.954-14.915,121.866
		c-7.063-16.965,18.089-147.164,18.327-149.746c-3.524,16.673-15.107,35.02-21.961,98.487c-1.913,17.717-2.927,43.672-2.927,43.672
		c-3.264,26.28-1.343,16.953,2.527,18.035c2.979,0.832,82.178-1.199,140.017-51.613c50.807-44.286,63.137-94.67,66.718-158.17
		c0.833-14.774-2.416-21.381-3.07-27.77c-0.208-2.036,1.12-3.86,0.328-5.814c-0.987-2.435-1.334-5.017-1.887-7.56
		c-11.841-54.441-22.274-70.1-21.562-110.551c0.053-3.008,1.155-14.673,3.454-14.151c1.916,0.435-0.7,7.077-0.891,12.531
		c-0.847,24.153,0.294,18.633,1.386,27.818c0.882,7.426,5.213,28.684,5.866,29.686c0.654,1.002,22.299,68.363,18.757,97.108
		c-0.947,7.678,1.554,104.434-67.225,159.697c-27.739,22.288-35.374,23.29-40.518,26.07c-3.345,1.808-16.256,9.316-21.282,9.576
		c-6.479,0.335,4.309-1.33-16.787,5.624c-23.534,7.755-43.025,10.126-52.974,10.808c-5.021,0.344-9.797,3.004-15.07,2.135
		c-0.901-0.148-1.148,0.736-1.347,1.285c-2.393,6.583-5.188,5.816-4.075,8.06c0.378,0.762,1.35,0.711,2.05,0.492
		c2.962-0.924,54.118-5.719,70.22-12.611c74.978-32.088,61.417-27.108,90.617-50.062c1.772-1.393,12.964-7.32,19.884-17.289
		c1.107-1.595,1.432-1.883-0.268-2.995c2.794,0.831,3.684-1.148,4.611-2.783c4.532-7.995,10.551-15.059,14.563-23.377
		c32.166-66.702,32.4-140.671,12.316-193.603c-2.243-5.911-7.957-24.618-9.82-35.957c-3.193-19.438-9.707-25.488,1.928-52.65
		c3.716-8.676-4.014-13.799-7.158-19.13c1.132,2.655-0.311,3.296-2.341,4.058c-3.117,1.172-21.314,4.896-30.723-2.001
		c-8.019-5.878-5.212-0.885-20.263-20.13c-41.668-53.275-11.848-218.434,36.427-187.788c1.698,1.078,1.957-2.064,5.232-7.856
		c4.965-8.78-2.876-6.645-5.912-24.479c-9.972-58.586,25.049-89.532,15.765-178.899c-0.201-1.933-2.902-3.598-0.718-5.802
		c0.046-0.047-0.102-0.338-0.208-0.478c-2.648-3.482-3.11-12.433-5.886-17.83c-4.043-7.862-8.332-20.069-11.264-24.396
		c-0.678-1.001-15.878-23.699-20.156-27.977c-37.016-37.019-85.508-51.722-90.551-52.151c0,18.042-4.568,3.967,34.062,22.432
		c78.358,37.454,101.101,117.235,79.702,189.172c0,0-6.913,38.86-9.568,48.841c-1.391,5.23-1.654,10.811-1.811,16.298
		c-0.079,2.767-1.251,5.343-1.17,8.185c0.528,18.457-0.309,25.447,6.575,37.939c5.183,9.406-9.025,0.378-19.534,8.156
		c-5.008,3.707-10.226,7.062-13.963,12.187c-5.414,7.423-8.574,8.667-7.487,13.383c0.198,0.858-0.271,1.673-0.984,2.374
		c-0.687-2.057,0.693-2.409-0.696-2.59c-0.959-0.125-5.636,13.182-5.98,14.357c-5.51,18.814-7.077,53.618-9.8,63.14
		c-1.461,5.105,4.173,58.954,8.032,70.982c0.736,2.294-1.988,2.402-2.178,0.804c-0.31-2.595-1.773-4.85-1.995-7.479
		c-0.141-1.676-0.358-3.432-1.637-4.816c0,0,7.618,80.008,10.544,97.33c0.315,1.867,0.079,13.334,3.893,9.69
		c4.271-4.081,4.885-11.586,1.364-16.493c-4.331-6.036,2.806-9.502,0.105-23.457
		C476.241,1215.913,475.909,1213.602,476.965,1211.396z M300.056,1615.263c-2.383-2.903-4.798-4.797-5.596-7.795
		c-0.106-0.396-0.38-0.607-0.842-0.639c-145.789-10.161-181.784-56.833-207.543-106.416
		c-45.424-87.435,22.962-199.695,25.297-226.92c0.086-1.001,2.721-19.033,2.399-33.651c-0.096-4.348-2.949-8.28-1.622-12.748
		c0.053-0.178-0.227-0.517-0.428-0.697c-1.133-1.016-2.403-2.55-1.22-3.644c1.445-1.335,3.052-3.307,5.807-1.992
		c25.564,12.204,98.917-35.51,91.917-149.519c-5.322-86.657-52.392-94.336-58.778-88.643c-1.446,1.289-4.006-0.059-3.585-1.511
		c0.542-1.87,0.587-3.864,2.085-5.551c7.574-8.531,11.879-30.439,11.511-38.383c-2.997-64.771-24.494-87.85-16.621-143.007
		c3.704-25.946,15.006-50.28,20.376-58.831c19.595-31.198,39.551-43.349,64.36-57.388c3.632-2.055,0.762-4.796,2.354-7.165
		c1.949,1.757,0.59,3.525,0.086,5.735c3.209-1.387,6.236-1.805,8.885-2.853c1.29-0.51,16.307-8.242,23.862-8.591
		c2.197-0.102,26.09-3.916,30.916-5.376c5.408-1.636,11.074,0.955,16.585-2.041c4.837-2.629,16.063,3.377,16.641-1.535
		c0.211-1.794-0.858-3.395-0.14-5.058c0.715-1.658,0.553-3.881-0.823-4.241c-1.651-0.431-3.35-1.911-5.198-1.045
		c-3.509,1.644-7.145,1.667-10.904,1.444c-6.34-0.376-38.977,5.929-39.977,6.14c-27.316,5.774-61.398,23.855-76.292,35.828
		c-11.344,9.119-38.513,26.184-53.405,76.134c-4.444,14.906-10.248,23.899-7.422,68.32c0.351,5.521,12.042,69.42,12.378,70.124
		c2.562,5.365,0.794,4.259,3.567,25.317c0.477,3.625-0.726,2.016-0.476,8.378c0.481,12.282-4.492,25.917-9.302,34.582
		c-1.228,2.211-4.966,3.457-3.223,7.042c-2.986,3.105,3.022,3.639,4.06,8.499c0.1,0.469,0.904,4.198,3.724,2.219
		c8.223-5.771,20.796,2.894,28.505,9.336c31.867,26.628,30.178,100.142,19.985,139.868c-15.174,59.137-66.267,82.584-82.444,69.035
		c-4.135-3.463-9.764,7.047-10.5,8.048c-0.302,0.411-0.137,0.874,0.183,1.328c9.237,13.069,5.382,34.641,5.439,38.451
		c0.482,32.659-39.521,84.291-43.609,168.688c-2.145,44.281,22.714,114.235,66.875,143.17c13.561,8.885,14.452,11.259,19.906,13.86
		c56.975,27.168,112.228,33.835,143.598,33.38C293.997,1614.91,296.62,1614.386,300.056,1615.263z M97.296,1544.394
		c0.19-0.189,0.379-0.378,0.569-0.567c-4.813-3.844-6.949-9.765-11.71-13.863c-4.505-3.877-7.826-9.139-11.616-13.833
		c-12.787-15.837-16.164-15.874-21.619-31.672c-8.765-25.38-10.927-26.993-13.416-37.583c-9.045-38.473-6.081-52.07,5.914-94.99
		c4.731-16.93,25.935-74.905,26.339-75.907c2.101-5.206,1.535-11.015,3.169-16.5c3.945-13.247-1.464-33.708-1.56-34.718
		c-1.246-13.028-8.931-12.567-4.5-15.916c0.407-0.307,0.342-0.912,0.106-1.362c-1.41-2.687,3.481-3.714,3.605-0.458
		c0.143,3.768,11.777,4.486,19.541,7.932c3.577,1.588-0.429,4.378,3.473,6.41c-1.951-3.706,1.297-5.958,1.675-8.966
		c-5.627-0.997-25.38-6.61-25.071-8.546c0.791-4.944,26.262,9.547,30.066,3.218c0.583-0.97,4.701-1.704,4.701-1.704
		c0.389-3.537,2.137-1.343,3.49-0.874c0.429,0.149,1.165,0.395,1.315,0.219c1.931-2.275,4.952-2.747,7.226-4.518
		c26.464-20.606,45.747-75.938,47.753-105.059c2.037-29.574,1.382-70.762-12.223-97.121c-4.868-9.432-7.3-4.669-10.197-3.874
		c0.251,1.318,1.64,0.45,2.068,1.481c11.687,28.18,5.268,13.266,9.995,29.664c5.276,18.302,5.522,54.654,3.394,74.626
		c-3.562,33.417-25.573,85.156-57.164,102.842c-9.927,5.558-27.384,0.883-29.958-4.012c-1.585-3.013-12.642,10.185-11.211,11.956
		c7.28,9.015,10.738,21.583,10.012,25.229c-0.736,3.692,0.135,7.434-0.39,11.207c-8.862,63.612-28.146,70.48-39.755,146.867
		c-1.34,8.82-1.718,17.557-0.46,26.365c0.278,1.945-0.486,3.963-0.06,5.692c1.584,6.423,0.88,12.653,2.777,19.414
		c11.395,40.614,34.438,73.739,52.525,88.843C89.949,1537.533,93.571,1541.025,97.296,1544.394z M345.23,1029.199
		c7.917-1.86,5.717,57.667,5.988-687.965C351.305,102.436,343.288,1029.655,345.23,1029.199z M413.561,1027.719
		c2.474,0.006,3.214-1.172,2.497-4.115c-2.602-10.683-24.105-721.194-28.558-721.194
		C384.867,302.409,408.254,1027.706,413.561,1027.719z M398.187,1158.649c-0.533-10.976,0.002-22.008-0.523-33.043
		c-0.239-5.017-1.467-10-0.78-15.071c0.421-3.107-5.116-2.476-6.44-7.625c-4.539-17.64,6.601-18.434,5.881-27.501
		c-3.188-40.149,1.398-42.47-3.524-42.351c-5.225,0.126-10.435-1.112-15.698-0.017c-1.422,0.296-3.538-0.881-4.404-0.198
		c-0.64,0.504,0.906,132.961,2.27,133.116c2.552,0.289,1.929-2.255,2.964-3.311c0.821-0.837-0.603-1.11-1.255-1.299
		c-1.334-0.387-1.057-1.863,0.464-1.713c2.402,0.236,4.723-0.351,7.085-0.629C388.844,1158.464,393.497,1157.564,398.187,1158.649z
		 M353.199,1167.003c20.875-4.342,14.003,8.846,15.38-36.687c0.316-10.432-0.228-13.286-0.878-39.231
		c-0.136-5.415,0.386-10.845,0.287-16.262c-0.121-6.605-0.707-13.2-0.864-19.805c-0.535-22.467,1.461-22.719-2.715-22.542
		c-21.27,0.904-13.228-5.375-15.374,22.099c-0.38,4.869,0.143,9.814,0.269,14.722
		C351.806,1166.534,345.674,1168.568,353.199,1167.003z M338.01,1296.172c-0.72,19.174-2.33,20.648,2.138,20.153
		c22.681-2.514,14.699,7.202,19.893-36.272c12.762-106.806,13.446-76.614-10.315-82.41c-1.01-0.246-2.027-0.134-2.015,1.326
		C347.761,1204.821,338.048,1295.171,338.01,1296.172z M398.629,1194.99c-3.563,2.4-18.152,1.446-22.35,2.353
		c-2.187,0.472-1.261-1.016-3.213,16.019c-11.956,104.356-12.458,100.925-8.724,100.665c17.832-1.246,14.341,2.693,17.461-18.893
		c3.493-24.171,14.824-83.898,15.003-84.913C397.654,1205.409,397.986,1200.506,398.629,1194.99z M396.817,1027.996
		c1.922-0.15-14.312-724.855-18.219-725.638C377.262,302.09,393.245,1028.274,396.817,1027.996z M130.231,979.317
		c-0.266-1.137-1.023-1.54-1.544-1.552c-2.899-0.065-5.377-1.874-8.337-1.796c-2.358,0.062-4.222-1.631-6.319-2.502
		c-0.804-0.334-1.264-1.167-0.834-2.203c17.126-41.309,7.822-55.866,8.923-62.437c0.163-0.975,0.968-4.003,0.261-4.095
		c-2.267-0.296-1.888-1.857-1.68-3.191c0.299-1.918-1.556-3.652-1.017-5.111c0.795-2.153-3.056-15.669-3.324-16.671
		c-6.16-23.015-5.444-52.297-5.444-52.297c-6.859-19.108,6.704-96.628,47.538-131.751c20.401-17.548,50.105-36.595,69.45-40.339
		c6.664-1.29,12.531-4.705,19.106-5.982c0.56-0.109,1.606-0.131,1.325-1.144c-0.521-1.873-27.654,7.196-35.459,8.63
		c-5.567,1.023-33.585,14.557-58.211,36.001c-37.857,32.966-53.077,96.022-49.102,142.258c0.086,1,5.937,48.569,11.054,66.009
		c2.3,7.839-0.46,8.211,1.547,14.358c5.598,17.146-4.855,49.625-11.448,53.118c-1.768,0.937-1.342,1.766-0.467,2.578
		c2.848,2.643,5.099,5.792,7.659,8.675c0.756,0.851,1.032-0.057,1.578-0.343c2.295-1.199,4.639-1.741,7.374-1.593
		C125.342,978.071,127.688,978.607,130.231,979.317z M376.616,83.322c0.392,5.484-1.684,10.581-2.149,15.855
		c-0.189,2.147-3.993,4.47-0.274,6.848c0.197,0.126-0.381,1.801,0.711,1.631c0.745-0.116,1.802-1.224,1.901-1.995
		c0.615-4.762,2.251-9.312,2.927-14.022c0.635-4.424,0.244-8.991,0.803-13.433c0.447-3.553-2.09-6.398-1.631-10.07
		c0.556-4.457-7.154-33.027-9.668-33.366c-2.367-0.319-6.588,2.774-6.789,5.226c-0.083,1.009-0.653,12.955-2.871,12.855
		c-1.287-0.058-0.852-1.034-0.844-1.737c0.05-4.671-2.569-1.991-3.699-8.93c-0.34-2.09-1.93-3.549-2.254-5.607
		c-0.397-2.517-2.289-4.2-3.645-6.205c-1.052-1.556-4.503-0.358-2.749,0.778c2.192,1.42,0.792,3.719,2.09,5.714
		c-2.217-0.832-1.791-2.853-3.343-4.18c-1.794,7.841-9.954,31.935-2.724,47.517c1.984-2.526,1.337-6.168,3.898-8.397
		c-0.749,3.83-0.403,7.894-2.669,11.359c-0.387,0.592-1.034,1.219-0.37,1.757c1.756,1.422,2.049,3.863,3.623,5.285
		c0.812-0.19,0.303,0.576,6.732-17.013c0.525-1.438,1.642-0.657,1.344,0.025c-2.28,5.229-3.293,32.414-10.126,40.461
		c-0.159,0.188,0.045,0.684,0.133,1.576c1.191-2.088,3.219-2.436,4.399-3.804c8.363-9.695,7.71-21.539,8.875-24.814
		c0.777-2.184,1.937-4.333,1.12-6.764c-1.972-5.873,3.057-20.473-0.338-25.178c-0.224-0.311-0.037-0.966,0.492-1.054
		c2.607,2.458,3.081,5.441,2.926,8.839c-0.471,10.367,3.919,17.478,3.507,26.112c-0.049,1.034,0.082,2.636,1.362,3.386
		c1.097-4.049,0.826-8.288,2.585-12.125c0.541,1.121,1.228,2.397,0.884,3.265c-1.23,3.1-1.031,6.371-1.494,9.549
		c-0.23,1.577-1.181,3.366,0.115,4.843c1.017,1.16,1.996,2.256,1.951,3.986c1.445-3.27,0.687-6.649,1.374-9.956
		c0.699-3.365,1.602-6.826,1.706-10.367c0.24,0.028,0.481,0.057,0.721,0.085c0,1.998,0,3.997,0,5.995
		c0.122,0.021,0.243,0.042,0.365,0.063C375.888,85.983,376.252,84.653,376.616,83.322z M342.925,292.71
		c-6.222,2.876-6.395,2.52-5.996,4.221c2.523,10.756-0.958,21.676,0.788,32.472c0.162,1.002-5.757,700.637-2.925,700.617
		c2.203-0.015,2.234-728.775,5.43-730.087C343.618,298.54,343.051,295.772,342.925,292.71z M59.71,1381.025
		c8.474-6.372,13.316-44.697,24.064-64.573c1.125-2.08,0.455-4.657,2.095-6.639c0.645-0.78-0.424-1.01-1.116-1.066
		c-15.102-1.226-20.823-6.789-21.847-1.319c-0.551,2.944-16.989,43.96-13.946,44.731c10.54,2.671,10.845,2.569,15.54,3.416
		c1.758,0.317,1.12,3.054,0.254,2.254c-1.465-1.354-3.192-0.438-4.764-0.716c-15.234-2.694-10.758-8.322-14.666,6.156
		c-0.524,1.942,0.394,2.502,2.086,2.833c4.597,0.899,9.068,2.498,13.845,2.358c1.555-0.046,2.315,2.415-0.05,2.432
		c-8.311,0.06-8.395-2.528-9.947,4.406c-1.289,5.76,0.589,3.601,3.698,4.856c1.874,0.757,2.444,0.066,3.061-1.841
		c0.598-1.847,0.626-4.258,2.936-5.833C60.521,1375.451,60.159,1377.944,59.71,1381.025z M418.664,1191.813
		c-16.683,8.279-13.98-12.575-20.14,33.688c-1.007,7.565-13.271,74.512-14.206,85.458c-0.281,3.293,5.947-0.287,8.293-0.277
		c4.171,0.018,2.621-2.125,6.23-20.579C399.037,1289.102,417.422,1196.253,418.664,1191.813z M338.868,280.232
		c0.226,2.729-3.507,6.05-1.879,8.117c0.785,0.997,1.774,0.05,2.676-0.097c8.267-1.34,3.914-1.089,4.007-6.082
		c0.302-16.175,3.866-12.433-2.552-73.463c-0.483-4.592-3.023-1.953-1.837-5.112c2.133-5.677-10.006-48.001-12.538-56.27
		c-9.012-29.434-7.269-31.246-10.331-30.116c-5.521,2.039,0.528,3.069,8.833,54.773c8.053,50.132,9.816,63.384,11.849,107.515
		C337.199,281.721,338.127,280.316,338.868,280.232z M413.737,1079.309c-6.299,5.639-7.839,6.227-6.111,8.471
		c3.539,4.597,2.185,14.874-2.434,18.589c-6.759,5.435-2.231,8.083-2.727,9.449c-0.848,2.335,0.259,42.07,0.283,43.072
		c0.192,7.95,4.402,6.684,5.7,7.541c3.236,2.135,6.486,4.247,9.687,6.34C416.842,1141.878,415.663,1110.987,413.737,1079.309z
		 M324.768,32.886c0.273,5.465-8.037,16.036-4.539,16.76c1.308,0.271,0.946-0.761,1.174-1.394c1.53-4.248,4.006-8.033,5.965-12.073
		c0.288-0.594,0.786-1.197,1.602-0.538c0.67,0.542,0.205,0.961-0.108,1.453c-1.962,3.079-3.004,6.601-4.662,9.813
		c-1.721,3.334-2.776,6.469,0.032,9.708c0.353-0.145,3.516-8.851,3.665-9.231c0.533-1.356,2.279-1.229,1.576,0.709
		c-2.613,7.208-5.2,11.298-4.656,16.489c0.785,7.49-5.427,22.938-10.162,28.813c-2.494,3.095-2.016,0.571-11.322,0.674
		c-4.439,0.049-1.54-3.425-3.609-3.75c-0.958-0.151-1.884-0.511-3.308-0.919c2.142,7.833,3.151,27.96,16.132,20.673
		c0.251-0.141,0.565-0.412,0.772-0.352c3.524,1.022,4.462-2.369,5.652-4.027c12.086-16.839,12.132-29.234,13.93-33.534
		c1.689-4.04,0.572-8.446,0.657-12.677c0.127-6.303,2.453-21.334-9.443-30.525c-2.673-2.065-3.504,1.015-4.505,3.238
		c-7.033,15.625-7.406,13.995-2.738,15.445c0.759,0.236,0.877-0.433,1.034-1.022C319.19,41.78,321.934,37.66,324.768,32.886z
		 M386.976,285.248c-0.611,3.557,2.346,2.038,3.672,2.403c4.197,1.155,0.075-65.692-14.86-114.64
		c-1.986-6.508-5.895-12.205-7.835-18.754c-1.233-4.161-3.868-7.721-5.638-11.661c-8.899-19.811-11.538-17.201-14.031-21.284
		c-1.712-2.805-2.43-0.08-1.391,0.936c2.552,2.494,19.222,34.086,27.916,68.704C382.768,222.639,387.655,281.29,386.976,285.248z
		 M337.688,1491.415c-0.184-0.922,0.639-2.154-0.554-2.361c-1.314-0.228-1.521,0.931-1.821,2.077
		c-0.433,1.659-10.969,56.706-11.515,57.902c-2.502,5.484-15.021,54.724-10.605,64c0.703,1.476,4.752,2.438,5.137,1.289
		c1.776-5.312,4.144-10.416,5.407-15.911c8.442-36.726,9.017-71.026,10.813-80.013
		C336.344,1509.415,336.028,1500.23,337.688,1491.415z M169.816,1175.761c-2.577-1.048-4.96,0.242-7.348-0.577
		c-5.208-1.785-15.753-1.34-15.497-3.337c0.295-2.3,3.508-0.668,20.522,1.655c1.149,0.157,3.768,3.642,7.032-5.448
		c-4.156,2.75-9.013-1.765-22.163-1.328c-2.575,0.086-2.412-4.245-4.052-0.364c-6.408,15.166-21.301,28.386-25.595,34.721
		c-2.4,3.541-5.421,3.682-6.455,4.358c-0.379,0.248-1.124,0.146-1.217,1.071c14.949,3.815,28.745-3.517,39.888-14.268
		C160.247,1187.117,165.661,1182.037,169.816,1175.761z M309.293,308.479c1.699-4.948,6.751,0.486,8.171-4.178
		c3.18-10.449,9.931-22.089,15.825-31.977c2.32-3.893,0.054-26.058-0.399-31.221c-2.655,2.961-4.097,6.365-5.861,9.533
		c-0.841,1.51-2.924,2.161-2.767,4.304c0.573,7.821-6.744,11.55-8.633,14.944c-3.64,6.541-7.048,13.209-9.895,20.147
		c-1.35,3.288-1.522,6.998-3.603,10.02c1.757,4.404,1.011,9.748,4.986,13.316c2.143,1.923,4.352,3.775,6.444,5.752
		c1.045,0.987,2.454-0.374,2.99,0.27c1.634,1.963,4.088,1.663,6.054,2.622c1.222,0.596,1.627-1.866,0.394-1.773
		c-1.577,0.119-1.963-0.918-1.561-2.046c1.476-4.143-15.405-4.714-13.485-12.624c5.917-24.383,19.992-36.87,23.662-48.905
		c0.305-1,8.234-6.914-12.887,26.884C313.959,291.18,311.534,299.701,309.293,308.479z M436.805,193.369
		c-5.475-1.972-9.45,2.259-12.65,7.114c-5.703,8.652-0.357,10.437-2.294,20.822c-2,10.726,4.204,14.456,4.899,18.576
		c0.592,3.511,6.546,9.332,7.928,9.29c6.667-0.206,10.951,5.037,23.006-8.435c0.354-0.395,3.016-13.635,2.931-17.422
		c-0.471-20.896-16.394-30.725-17.356-29.317c-0.852,1.248,6.493,2.912,0.65,6.77c-0.735,0.485-2.796,10.173-1.177,16.686
		c5.638,22.679,8.785,14.904,8.528,11.508c-0.26-3.429,1.477-6.721,0.635-10.195c-0.141-0.582-0.205-1.471,0.907-1.401
		c1.139,0.072,3.917,12.764,1.525,16.885c-0.541,0.931-1.991,1.153-1.822,2.401c0.604,4.459-1.655,6.553-5.662,7.912
		c-2.509,0.851-4.262,2.059-7.438,0.894c-16.79-6.161-13.502-21.158-14.394-24.318c-1.759-6.23,1.401-11.868,2.275-17.782
		c0.014-0.096,0.005-0.236,0.064-0.28C430.999,200.338,430.486,193.716,436.805,193.369z M127.663,935.946
		c0,3.632-1.35,4.573,2.176,4.798c2.256,0.144,11.898,2.631,10.98,4.368c-0.307,0.58-0.753,0.863-1.41,0.79
		c-2.326-0.257-4.763,0.211-6.936-1.038c-1.367-0.785-5.526-1.204-5.321-0.074c0.674,3.719-2.162,6.404-2.864,9.798
		c-1.19,5.753-3.363,11.409-8.338,15.779c6.094,0.546,14.408,8.069,15.875,5.037c1.771-3.66,4.391-6.962,5.551-10.826
		c7.668-25.536,7.471-27.719,2.96-27.323C136.043,937.635,132.207,935.325,127.663,935.946z M381.911,1161.978
		c3.17,2.192,3.228,1.8,3.092,2.636c-0.266,1.636-1.544,1.275-8.142,2.532c-4.496,0.856-2.159,3.157-2.865,9.324
		c-0.309,2.697,1.519,2.933,2.977,2.205c5.312-2.654,12.82,3.004,7.621,3.854c-1.534,0.25-3.452,2.37-4.571,0.025
		c-1.336-2.802-3.378-1.603-5.084-1.316c-1.945,0.327-0.425,1.919-0.918,5.519c-0.723,5.278,13.931,2.042,23.578,0.272
		c1.232-0.226,1.161,0.164,1.084-12.804c-0.018-3.116-4.512,1.548-7.907-0.995c-0.711-0.533-1.607-0.795-1.489-1.869
		c0.121-1.105,0.943-1.382,1.901-1.317c2.192,0.149,3.944-1.524,6.162-1.427c0.718,0.031,1.323-0.697,1.228-1.685
		C397.691,1157.756,400.396,1161.205,381.911,1161.978z M399.85,1032.498c-3.235-0.132,0.89,8.426-0.402,23.128
		c-0.088,1-0.533,24.022,4.473,17.204c1.973-2.687,4.747-3.102,7.664-2.943c2.335,0.127,1.671-0.166,1.25-8.54
		C410.967,1024.186,415.142,1033.124,399.85,1032.498z M319.619,1168.182c4.034-2.796,0.342-4.632-1.638-1.96
		c-1.405,1.895-17.936,0.218-18.246,1.087c-0.246,0.69,0.294,1.167,0.805,1.361c3.687,1.397,6.604,5.137,11.378,3.422
		c0.946-0.34,2.862-0.778,4.023,0.603c-0.602,0.675-1.281,0.972-2.102,1.056c-0.706,0.072-1.809-0.535-2.013,0.497
		c-0.183,0.927,0.838,1.272,1.602,1.739c6.178,3.782,16.043,10.427,16.043,10.427c1.53,0.501,3.984-1.01,4.334,2.021
		c2.829-0.813,8.718,3.155,8.659-0.833c-0.244-16.622,0.735-17.333-1.622-17.18C333.692,1170.89,326.852,1168.51,319.619,1168.182z
		 M251.927,262.122c-0.452-4.761-0.067-9.038-3.18-12.644c0.475-0.036,1.24,0.077,1.343-0.134c0.262-0.536-0.102-0.814-0.739-1.038
		c-1.396-0.491-0.794-1.824-0.057-1.781c1.573,0.091,0.868-0.316,0.729-1.191c-1.391-8.753,3.031-17.922,9.186-24.916
		c-8.433-1.77-9.111,14.179-15.637,16.969c-1.994,0.853-4.313,2.813-4.169,5.897c0.052,1.112-0.098,2.473-1.403,2.77
		c-2.525,0.574,0.119,5.256-0.365,8.205c-0.29,1.765,0.994,2.248,1.358,2.04c2.218-1.269,3.938-1.523,4.975,1.323
		c0.009,0.026,0.196,0.02,0.279-0.018c1.219-0.552,2.406-1.126,2.844,0.903c0.261,1.209,1.41,2.301-0.266,3.54
		c-0.788,0.583,0.299,2.364,0.572,2.288c1.863-0.519,1.752,1.614,1.77,1.819c0.292,3.339,3.022,5.06,4.733,7.421
		c0.779,1.075,1.929,1.468,3.513,0.703c-3.802-3.954-2.85-4.734-4.379-12.347C252.631,259.921,252.008,262.247,251.927,262.122z
		 M304.626,57.522c0.827,0.058,2.465,0.749,2.405,0.856c-1.351,2.401,0.957,2.119,1.971,3.124c0.13-1.315-1.375-2.937,0.488-3.032
		c8.594-0.436,0.435,23.537-2.605,22.367c-3.768-1.449-7.682-0.681-11.736-0.883c0.801,0.55,0.189,2.348,1.03,1.914
		c5.439-2.806,1.38,7.517,7.919,5.535c9.092-2.756,9.054-13.042,12.1-15.47c-0.511,2.784,1.561,4.108,1.607,5.88
		c4.215-3.805,4.914-8.865,4.75-14.212c-1.316,0.68-1.72,0.613-3.733-1.445c-2.915-2.98-5.482-4.052-6.225-10.078
		c-0.199-1.612-2.209-1.526-2.625-2.9C308.969,49.821,305.739,52.983,304.626,57.522z M323.741,1439.327
		c1.509-5.935,0.015-40.54-1.742-47.268c-7.972-30.532-6.215-36.844-9.904-42.093c-2.219-3.157-2.267-7.113-4.599-10.1
		c-0.191-0.244-0.228-0.922-0.046-1.097c2.505-2.414-1.649-6.69-1.258-8.831c0.475-2.603-1.203-3.844-3.439-5.863
		c3.486,13.224,14.943,54.108,16.176,71.264c0.159,2.205,1.597,3.878,1.462,5.912
		C320.251,1403.357,322.483,1434.158,323.741,1439.327z M90.226,1296.085c-3.607,0.992-2.141-0.444-16.149-4.119
		c-5.992-1.572-5.263,0.326-8.681,9.229c-0.557,1.45,0.335,2.208,1.454,2.015c3.254-0.559,20.418,6.344,20.774,2.713
		C87.953,1302.563,89.822,1299.619,90.226,1296.085z M299.19,634.302c4.08-3.177,5.791,3.063,11.812,0.636
		c5.209-2.099,13.159-3.169,12.852-5.001c-0.272-1.62-1.612,0.734-2.435-1.672c6.587,0.499,7.534-11.555,1.701-5.206
		c-0.648,0.705-1.544,1.426-1.724,2.269c-0.433,2.027-2.716,1.523-3.559,2.929c-0.293,0.488-0.652-0.156-0.838-0.409
		c-0.441-0.599,0.074-0.651,0.481-0.954c0.684-0.51,1.964-0.155,2.085-0.642c1.452-5.842,6.75-4.114,7.675-9.272
		c-11.116,9.018-10.573,8.804-11.633,8.83c-3.197,0.078-10.257,3.146-10.257,3.146c-2.688-0.442-5.256,0.54-7.863,1.314
		c0.804,0.115,1.607,0.23,3.055,0.437c-1.826,0.242-2.822,0.758-4.193,0.612c-1.798-0.19-4.499,1.178-4.577,2.442
		c-0.153,2.473-1.896,3.575-3.269,5.758c5.714-0.225,10.487-2.995,16.313-2.669C302.899,635.093,300.825,635.575,299.19,634.302z
		 M358.496,211.992c3.327,0.771,3.502,3.4,3.886,5.926c0.089,0.588-0.203,1.658,0.801,1.536c5.051-0.615-1.387-9.283-1.78-12.714
		c-0.152-1.323-0.064-2.711-0.54-4.14c-10.34-31.059-4.932-37.281-12.444-35.12c0.182,2.416,1.536,4.474,2.02,6.876
		c0.46,2.28,0.252,5.775,3.884,6.69c0.81,0.204,1.557,1.504,0.12,2.187c-1.35,0.642-0.814,1.465-0.579,2.393
		c1.578,6.24,2.52,12.633,4.685,18.735c2.387,6.726-8.973-1.189-7.957,3.486c0.734,3.379,1.328,6.788,2.042,10.513
		c1.13-2.156-0.174-5.551,1.706-5.703c0.699-0.057,1.381,0.362,1.369,0.833c-0.1,3.893,2.462,7.055,2.669,10.918
		C363.136,221.309,356.08,218.892,358.496,211.992z M360.994,1324.119c20.464,0.097,14.529-0.392,17.442-2.333
		c-2.206,14.503-8.248,27.705-9.229,42.051c1.947-0.105,2.81-1.899,2.942-3.24c0.515-5.209,3.041-10.076,2.542-15.449
		c-0.061-0.655,0.408-1.769,0.925-1.993c1.64-0.713,1.591-2.352,2.573-4.299c-0.352,3.062,1.345,2.641,2.611,2.501
		c4.225-0.467,11.308-1.475,10.022-5.518c-0.637-2.002-2.056,0.632-3.149-0.092c-0.276-0.183-0.79-0.153-1.144-0.048
		c-2.748,0.813-6.029-0.371-8.338,2.355c1.522-3.841,3.881-21.041,4.133-22.22c0.291-1.367-0.683-0.94-1.171-1.251
		c-1.025-0.651-1.07,0.267-1.134,0.808c-0.125,1.049-1.932,2.506,0.653,3.031c1.004,0.204-1.309,1.02,0.224,2.049
		C374.188,1321.435,367.378,1321.605,360.994,1324.119z M333.099,1320.483c-1.069,3.326-0.545,6.66-0.969,9.961
		c-0.276,2.151-1.145,4.257-1.049,6.538c0.027,0.635-0.742,2.59-2.934,2.354c-4.078-0.438-8.212-0.036-12.33-0.616
		c-1.283-0.181-3.803-1.751-4.14,0.427c-0.875,5.654,12.159,3.793,18.463,5.494c-2.732,4.985-1.237,10.53-2.162,15.79
		c-0.312,1.773,2.46,2.055,3.203,1.249c0.163-0.177,0.057-0.942-0.147-1.064c-1.807-1.072-1.876-1.809,0.283-2.44
		c0.279-0.082,0.348-0.863,0.526-1.316c1.02-2.595,0.81-5.531,2.245-8.022c0.269-0.467,0.026-1.017-0.658-0.876
		c-2.501,0.515-1.303-0.871-0.986-1.849c2.077-6.414,3.387-12.918,2.417-19.713c-0.402-2.815,2.517-6.207,0.893-11.284
		C333.235,1317.405,336.69,1323.67,333.099,1320.483z M270.519,223.595c0.175,0.942,1.088,0.985,1.701,1.311
		c0.853,0.453,0.971,1.196,0.305,1.541c-2.706,1.403,1.509,9.571,1.897,10.583c0.729,1.899,0.487,4.36,1.718,5.567
		c3.585,3.517,1.69,20.265-0.318,25.108c-0.437,1.055-0.149,2.239,1.063,3.334c1.811-3.644,4.356-6.758,4.721-11.003
		c1.924-22.423-1.261-31.259-9.288-36.466C271.677,223.155,271.135,222.967,270.519,223.595z M403.729,1166.539
		c-0.737,1.622-0.447,16.141-0.426,17.144c0.091,4.567,6.278-0.302,11.701-0.013c3.802,0.203,3.699-1.816,3.511-4.35
		c-0.118-1.601,0.387-3.461-1.466-4.422C412.454,1172.516,408.398,1169.287,403.729,1166.539z M334.492,275.133
		c-0.238-0.064-0.476-0.128-0.714-0.192c-0.849,1.001-10.423,17.562-13.685,27.926c-1.318,4.188-1.658,4.028,1.85,6.037
		c1.406,0.805,1.983,0.65,2.698-0.948c0.225-0.502,9.461-20.926,9.731-22.071C335.243,282.204,332.818,278.723,334.492,275.133z
		 M397.65,1317.116c-1.41,2.154-2.041,4.689-3.699,6.656c2.8,2.32,0.098,4.029,0.129,5.029c0.043,1.369,0.07,2.721-1.246,3.642
		c-0.509,0.357-0.834,0.83-0.31,1.455c1.859,2.215-1.761,5.322-1.629,8.379c0.276,6.377-5.253,27.399-1.132,21.016
		c0.412-0.639,1.175-1.331,1.124-1.945c-0.408-4.905,1.664-9.444,2.015-14.254c0.168-2.298-0.237-4.831,1.019-7.009
		c1.405-2.437,4.137-1.012,6.117-2c6.681-3.333,8.836-1.222,8.821-7.618c-4.487,1.385-9.004,2.78-13.746,4.244
		C396.558,1328.702,397.331,1323.006,397.65,1317.116z M381.696,280.727c-1.691-2.198-13.558-58.38-16.415-57.976
		c-2.249,0.318,0.426,5.995,4.647,22.123c0.228,0.87-0.964,1.555-0.416,2.473c2.56,4.286,10.214,37.15,10.391,38.155
		c0.16,0.908,0.499,1.478,1.46,1.437c0.643-0.028,1.509,0.34,1.864-0.356c0.328-0.643-0.253-1.366-0.693-1.773
		C381.466,283.819,381.038,282.76,381.696,280.727z M339.701,149.029c0.603,0.319,0.878-0.694,1.58-0.694
		c3.413,0.003,5.493-3.416,3.903-6.325c-2.58-4.718-3.485-5.499-2.295-6.637c1.629-1.558-2.231-3.485-2.29-1.06
		c-0.039,1.602-4.364,1.354-5.898,1.161c-6.367-0.801-3.602,1.747-3.405,6.044c0.089,1.931-1.8-0.429-2.265,0.777
		c-0.229,0.594,0.358,0.965,0.803,1.384c0.882,0.832,1.62,1.815,2.685,3.045c0-1.246-0.048-2.178,0.017-3.102
		c0.085-1.222,1.753-1.664,1.724,0.128c-0.099,6.049-1.152,6.276,1.738,6.769c1.45,0.247,1.158-0.949,1.158-1.748
		c0.002-2.704,0.199-5.41-0.722-8.761C340.436,142.653,338.177,146.316,339.701,149.029z M150.839,1161.228
		c6.003-0.034,19.902,3.98,24.357,5.669c1.639,0.621,2.382-5.062,4.568-7.067c-1.225,0.392-2.478,0.571-3.487,0.183
		c-6.119-2.355-12.816-2.116-18.969-4.419c-3.124-1.169-4.197-0.294-4.992,3.244C152.098,1159.81,151.374,1160.19,150.839,1161.228z
		 M310.209,68.222c0.26-2.05-0.459-3.397-3.168-2.355c-1.883,0.725-3.593,0.037-5.29-0.584c-0.531-0.194-0.905-0.78-1.393-0.002
		c-0.933,1.488-3.533,0.539-2.739-2.004c0.396-1.269-0.365-2.317-1.361-2.84c-1.068-0.56-1.321,0.838-1.774,1.36
		c-3.806,4.389-1.847,13.221-0.509,13.399c2.589,0.345,1.823-4.768,3.477-4.698c0.559,0.023,1.081,0.436,1.03,0.849
		c-0.366,2.976,6.608,1.404,7.609,1.405C309.292,72.752,310.195,71.761,310.209,68.222z M285.749,173.23
		c4.227-4.559,8.662-2.26,18.962-2.157c4.942,0.049,4.941,0.013,5.411-4.816c0.054-0.557,0.351-1.24-0.356-1.519
		c-2.411-0.954-0.65,3.056-4.922,1.947c-12.008-3.12-14.279-1.29-19.126-3.991C286.643,166.43,286.235,169.727,285.749,173.23z
		 M300.334,243.83c-2.309,3.443,1.442,6.03-0.459,9.889c-1.114,2.261-0.879,4.895-2.279,7.01c-0.293,0.443-0.381,0.922-0.053,1.342
		c0.118,0.151,0.649,0.226,0.711,0.138c1.316-1.861,4.041-2.516,4.124-5.515c0.243-8.776,18.488,0.61,18.766-2.233
		c0.138-1.412,0.535-4.019-1.823-4.24c-3.419-0.32-6.627-1.519-10.187-1.562C306.008,248.621,301.581,248.821,300.334,243.83z
		 M344.2,1422.97c-2.791,5.913-3.234,27.896-3.308,29.224c-0.469,8.429-9.553,37.049-3.926,35.592
		c1.091-0.282,0.721-1.196,0.814-1.919c0.661-5.14,1.028-10.341,2.075-15.401c3.296-15.934,1.906-23.382,3.461-32.592
		C344.123,1433.103,343.951,1428.438,344.2,1422.97z M152.448,727.544c-1.481,0.512-2.538,1.208-3.573,1.177
		c-4.254-0.127-8.511,1.777-12.759-0.003c-0.426-0.179-0.716,0.064-0.848,0.503c-0.821,2.731-2.99,4.775-3.979,7.357
		c0.215,0.2,0.272,0.301,0.341,0.31c4.892,0.616,9.911-0.835,14.739,0.91c0.609,0.22,0.911-0.314,1.014-0.745
		C148.205,733.607,150.859,731.151,152.448,727.544z M316.699,265.542c-3.89,3.13-7.072-2.975-10.33,4.176
		c-2.144,4.706-1.719,8.852-2.417,13.233c-0.529,3.318-1.989,6.634-0.848,11.057C305.381,282.89,313.237,271.393,316.699,265.542z
		 M181.477,1154.978c2.595-4.819,4.445-7.056-0.111-7.125c-6.304-0.096-12.338-2.089-18.641-2.346
		c-4.766-0.194-5.069-0.423-6.274,3.523c-0.023,0.076,0.056,0.182,0.136,0.415c5.709,0.405,6.539,0.747,7.278-1.571
		c0.057-0.18,1.823-0.508,1.766,0.575c-0.136,2.628,5.642,1.361,10.112,3.677C177.649,1153.114,180.556,1151.849,181.477,1154.978z
		 M73.761,1276.776c14.243,4.226,14.223,4.569,14.663,3.179c0.877-2.769,3.176-8.801,0.84-7.807
		c-1.197,0.51-3.907-2.137-3.717,1.535c0.033,0.642,0.292,1.779-1.009,1.637c-2.543-0.278,1.618-3.023-3.007-4.891
		c-1.086-0.439-2.319,0.113-3.293-0.841C75.676,1267.08,74.646,1275.47,73.761,1276.776z M388.841,210.553
		c1.376,6.819,1.269,7.681,2.751,7.092c2.961-1.177,12.74,0.175,14.168,0.904c1.017,0.519,1.453,2.31,3.008,1.712
		c1.745-0.671,0.617-2.004,0.955-4.718c0.579-4.659-7.542-1.794-17.433-3.436C391.082,211.906,390.115,211.572,388.841,210.553z
		 M127.649,746.766c3.902,0.332,8.986-1.35,14.011-0.453c0.595,0.106,1.095-0.019,1.314-0.771c0.499-1.708,2.604-3.108,1.979-4.84
		c-0.82-2.278-3.492-0.782-5.188-1.566c-0.281-0.13-0.817,0.298-1.103,0.171c-1.874-0.833-3.643,1.46-5.307,0.368
		C129.81,737.349,129.753,740.096,127.649,746.766z M351.104,1369.607c-4.962-1.273-1.77,3.34-6.55,5.987
		c-10.093,5.587-17.25-1.854-15.209-6.685c0.535-1.265-0.075-2.085-1.177-3.023c-0.226,1-1.98,7.433,0.23,9.706
		c1.677,1.725,3.345,4.461,6.064,4.296c3.385-0.206,7.335,0.649,10.064-1.271c8.08-5.688,7.09-7.47,7.933-15.249
		C348.01,1365.044,347.827,1365.565,351.104,1369.607z M376.708,297.301c-0.571-2.183-2.548-4.145-1.179-6.719
		c0.527-0.991-6.079-0.842-7.617-0.878c-1-0.023-7.29-1.859-3.828,5.337c0.35,0.727,0.265,2.41,1.488,2.106
		C369.271,296.227,372.854,298.237,376.708,297.301z M290.225,252.575c4.778-0.3-0.909,5.412-0.431,8.241
		c0.258,1.525,1.673,1.847,1.887,1.011c0.634-2.477,3.183-4.285,3.32-6.542c0.169-2.778,1.183-5.678,0.043-8.522
		c-1.215-3.032-2.491-9.675-4.723-7.203c-0.971,1.075,0.177,1.821,0.602,2.511c3.464,5.616-4.656,4.116-2.677,9.773
		C288.483,252.518,288.969,253.347,290.225,252.575z M377.349,1195.126c3.44-1.055,23.511,0.318,22.166-4.331
		c-0.272-0.941-1.114-1.777-2.497-1.047c-5.598,2.952-23.31-0.236-22.941,3.847C374.233,1195.318,375.325,1195.286,377.349,1195.126
		z M140.278,750.953c-14.842,0-14.204-1.545-15.696,3.639c-0.815,2.83,0.835,1.189,9.209,1.86c5.201,0.417,5.197,0.486,6.594-4.648
		C140.431,751.637,140.343,751.433,140.278,750.953z M135.563,768.26c0.64-5.148,3.085-5.885,0.016-6.265
		c-4.362-0.541-8.717,0.006-13.068-0.487c-2.108-0.239-0.766,2.556-1.95,3.505c-3.08,2.466,5.839,1.946,11.775,1.776
		C133.705,766.749,134.706,767.053,135.563,768.26z M310.844,34.599c-0.09-0.047-0.18-0.094-0.271-0.141
		c-5.898,6.496-2.379,0.695-12.406,19.455c-0.557,1.041-1.28,2.186-0.576,3.257c0.609,0.928,1.453-0.392,2.337-0.259
		c0.883,0.133,2.61,0.426,2.66-0.268c0.219-3.029,3.007-5.177,2.787-8.151C305.136,45.254,307.643,41.026,310.844,34.599z
		 M306.259,47.261c1.057-0.166,1.197-1.571,2.343-1.107c3.557,1.44,3.788-1.168,11.39-18.231c-1.51,1.744-4.409,0.926-5.462,2.954
		C311.754,36.221,309.093,41.626,306.259,47.261z M352.635,246.327c2.347,0.216,4.694,0.432,6.8,0.625
		c-2.978-6.971-3.2-14.285-4.697-21.736c-2.494,5.04-1.621-1.171-3.626-0.135c-1,0.517-0.046,0.528,0.512,3.61
		C355.241,248.683,356.073,245.098,352.635,246.327z M360.206,265.227c3.917-1.158,0.994-7.341,5.017-7.092
		c1.202,0.074-1.383-5.601-1.433-7.181c-0.014-0.433-0.482-0.891-1.036-0.855c-1.91,0.124-3.716-1.153-5.688-0.429
		C358.109,254.837,359.147,259.976,360.206,265.227z M366.708,249.874c3.288,12.636,3.472,11.964,2.771,13.011
		c-0.77,1.151-3.717,2.443,0.123,3.487c0.023,0.006,4.05,12.736,4.318,15.587c0.113,1.204,0.381,2.261,1.338,3.073
		c0.528,0.448,0.535,1.77,1.594,1.259c1.212-0.585-7.773-31.622-8.07-33.58C368.625,251.668,368.054,250.971,366.708,249.874z
		 M161.269,1137.722c15.83,2.271,25.732,8.501,26.519,2.783c-12.2-3.972-21.936-1.472-25.019-6.759
		C161.941,1135.025,161.501,1136.327,161.269,1137.722z M380.738,155.487c0.806-4.891-0.545-8.556-0.775-12.414
		c-2.383,0.753-4.584,1.435-6.937,1.156c-3.85-0.457-1.007,6.653,2.214,7.689C377.064,152.505,379.37,152.552,380.738,155.487z
		 M395.727,368.82c0-23.384-2.399-62.503-1.247-66.648C394.48,302.171,390.399,284.01,395.727,368.82z M366.409,1196.375
		c2.014,0.14,2.734-0.681,2.393-2.714c-0.703-4.186-5.497,0.968-18.262-1.746c-0.671-0.143-1.709-0.986-1.676,0.331
		c0.024,0.926-0.902,2.55,1.261,2.922C356.694,1196.299,365.409,1196.306,366.409,1196.375z M356.47,256.437
		c-2.149-5.905-0.779-7.641-2.886-7.915c-1.106-0.144-2.523,0.104-2.99,1.221c-2.254,5.379-3.917,13.944,1.275,10.797
		c1.237-0.75,1.703-2.893,3.931-2.154C356.653,258.669,356.458,257.477,356.47,256.437z M331.305,1325.74
		c0.211-3.287-7.426-1.734-18.279-2.721c-1.261-0.114-1.91-1.865-3.349-0.903c-1.262,0.845-1.804,0.21-1.787-1.078
		c0.024-1.869-2.295-1.401-1.575,0.324c0.872,2.09,1.466,4.181,4.683,3.829C317.346,1324.497,331.086,1329.154,331.305,1325.74z
		 M289.618,104.584c0.229-1.615,6.807-8.684,3.712-13.785c-0.168-0.277-0.154-0.938,0.047-1.123
		c3.057-2.791-2.137-7.522-2.047-11.505c-0.335,0.865-0.75,1.55-0.641,2.615c0.575,5.652-0.518,11.23-1.073,16.828
		c-0.069,0.697-0.934,1.526,0.178,1.874c0.922,0.289,0.04-1.392,1.102-1.381C291.823,100.562,286.935,101.386,289.618,104.584z
		 M41.727,1377.803c4.629,0,5.169,1.326,6.579,0.29c1.645-1.209,1.023-3.762,1.828-5.593c0.91-2.072,1.511-3.947-2.006-3.518
		c-1,0.122-3.227-3.972-4.165-0.009C43.286,1371.833,42.524,1374.673,41.727,1377.803z M361.858,296.82
		c-4.088-2.529,0.84-7.324-3.215-6.889c-9.739,1.045-7.996,2.11-7.979,4.932c0.005,0.879-0.781,2.398,1.007,2.482
		C354.926,297.497,358.214,297.913,361.858,296.82z M341.995,123.858c0.24-0.168,0.48-0.335,0.719-0.503
		c-2.669-8.948-1.587-5.24-5.123-5.934c-21.846-4.285-16.228,3.632-12.556,2.092c6.851-2.873,5.662,1.466,8.692,0.855
		C337.142,119.68,340.31,119.835,341.995,123.858z M384.887,143.858c0.325,2.203,0.609,4.386-0.549,6.468
		c-0.322,0.58-0.516,1.442-0.036,1.921c2.085,2.081-0.292,5.481,1.377,6.041c1.132,0.379,6.195-5.424,1.87-19.909
		c-0.171-0.573-0.638-1.446-1.689-1.05C388.267,143.303,388.12,144.285,384.887,143.858z M343.587,180.544
		c0.724-4.2-1.864-7.49-2.381-11.291c-0.191-1.404-1.388-2.426-2.433-3.119c-5.694-3.78-1.088,7.152-0.931,9.652
		c0.085,1.355,1.545-0.317,2.122,0.641c0.298,0.494,0.795,0.876,0.669,1.516C340.104,180.623,341.9,180.56,343.587,180.544z
		 M91.353,1283.644c1.553,3.265-2.187-0.476-2.186,1.668c0.002,2.402-1.416,4.359-1.84,6.639c-0.366,1.969,0.865,1.727,1.933,2.317
		c1.283,0.708,1.941,1.93,4.955-14.582c0.952-5.214,2.049-6.045-0.034-6.692c-0.575-0.178-0.864-0.121-0.852,0.633
		C93.388,1277.216,90.885,1280.312,91.353,1283.644z M127.937,924.295c-0.417,1.077,0.479,2.185-0.184,3.31
		c-0.27,0.457-0.212,1.185,0.849,1.388c13.957,2.675,14.969,3.743,15.02,2.234c0.214-6.313-1.099-4.415-3.863-4.236
		C135.636,927.258,131.358,927.852,127.937,924.295z M409.744,1191.915c2.589-1.818,5.57-1.135,8.419-1.469
		c1.722-0.202,1.235-2.064,1.336-3.063c0.098-0.971,0.78-0.596-15.688,1.386c-1.686,0.203-1.38,1.73-1.563,2.632
		c-0.264,1.303,1.035,0.575,1.654,0.782C405.911,1192.855,407.598,1190.26,409.744,1191.915z M346.539,183.638
		c-0.344,1.33,0.601,2.705-0.788,4.203c-0.609-1.785-0.346-3.565-1.785-4.798c-0.855,2.362,3.157,16.844,3.936,19.304
		c0.47,1.485,3.126,1.239,2.624-0.79C346.998,187.291,346.612,184.173,346.539,183.638z M45.994,1383.245
		c-7.882-1.782-5.241-0.481-6.726,5.444c-0.247,0.987,0.762,2.678,1.263,2.2c2.398-2.29,4.772,1.194,5.205-0.609
		C47.225,1384.084,48.23,1383.751,45.994,1383.245z M379.753,292.589c0.349,0.978,0.509,2.362,1.259,3.247
		c0.662,0.781,0.15,2.742,2.3,2.332c2.118-0.405,5.465,1.97,5.113-1.602c-0.5-5.075-2.541-6.482-7.483-5.664
		C379.692,291.108,379.891,291.664,379.753,292.589z M369.254,1367.86c-0.819,2.075,0.155,3.269,0.251,4.566
		c0.094,1.26-0.069,3.349,1.025,3.699c2.729,0.873,3.85,4.094,6.928,4.293c7.406,0.476,3.817-2.64,5.16-4.705
		c-3.331,3.596-5.614-0.31-8.293-0.786C370.849,1374.309,370.242,1371.164,369.254,1367.86z M359.981,284.852
		c0.003,0.83,0.492,0.962,1.122,0.925c1.148-0.067,2.18,1.137,3.339,0.382c0.448-0.292,0.221-1.185-0.105-1.242
		c-2.038-0.352-1.726-2.095-1.957-3.348c-2.509-13.591-1.235-13.465-2.862-13.266C356.509,268.672,359.945,272.954,359.981,284.852z
		 M347.207,205.974c0,4.641,0.584,6.122-2.268,4.726c-0.493-0.241-1.193,0.939-0.197,1.32c4.547,1.739-0.06,10.541,5.835,9.822
		c2.132-0.26-1.78-7.769-2.338-15.035C348.209,206.411,348.025,206.069,347.207,205.974z M77.282,1259.704
		c0.667,1.974-1.161,4.34,0.349,5.498c1.44,1.104,3.785,1.025,5.73,1.475c0.571,0.132,1.412,0.758,1.431-0.114
		c0.024-1.092,2.917-6.245-2.88-5.31C80.103,1261.544,78.612,1261.193,77.282,1259.704z M48.692,1389.397
		c-0.838,3.554,2.239,3.218,3.175,3.119c3.415-0.363,2.078-3.806,2.639-5.765c0.399-1.392-2.586-2.005-3.765-1.835
		C47.953,1385.317,49.436,1388.201,48.692,1389.397z M383.907,1379.041c4.961-2.582,6.328-5.096,7.447-13.227
		C386.256,1368.71,384.549,1377.211,383.907,1379.041z M350.881,1325.563c1.305,0.555,2.323-0.083,3.375-0.442
		c0.502-0.171,1.609,0.494,1.376-0.789c-0.303-1.67-5.959,0.748-16.953,0.041c-0.855-0.055-1.753-0.622-2.347,0.32
		c-0.736,1.168-0.264,2.835,2.176,2.128C342.608,1325.632,346.911,1326.895,350.881,1325.563z M348.39,117.075
		c3.551,0.2,5.747-1.47,8.144-2.524c-2.401-2.593,3.061-5.359-0.441-8.136C354.663,110.501,351.505,113.325,348.39,117.075z
		 M365.636,245.739c-3.054-6.278-3.045-13.494-4.768-19.082c-0.455-1.475-2.214-1.439-1.983-0.139
		c1.211,6.796,3.526,13.303,5.234,19.968C364.398,247.57,366.405,247.319,365.636,245.739z M348.75,177.922
		c-2.111-9.704-2.102-10.686-3.656-11.233c-2.039-0.718-1.796,0.23-1.58,1.23c2.328,10.765,1.855,10.22,2.465,9.672
		C347.22,176.478,347.808,177.883,348.75,177.922z M348.077,267.76c1.879,0.813,1.965,1.642,1.558,3.098
		c-1.225,4.383-0.593,9.048-1.726,13.491c-0.158,0.618-0.043,1.897,1.181,1.985c2.157,0.156,0.882-10.819,2.253-16.799
		C351.639,268.241,350.201,267.522,348.077,267.76z M330.116,314.337c-0.681-4.343,0.236-8.271-0.233-13.036
		c-1.482,2.869-1.768,5.314-3.149,7.262C324.641,311.514,327.062,312.176,330.116,314.337z M131.034,777.321
		c-0.114,1.903-1.475,2.158-0.27,2.708c1.369,0.625,0.936-0.772,1.078-1.367c0.186-0.78,1.121-1.366,0.659-2.347
		c-2.149-0.543-4.101,0.861-6.336,0.361c-1.192-0.267-2.466,4.257-1.439,3.821c1.341-0.57,3.217,0.453,4.125-1.47
		C129.231,778.224,129.734,777.301,131.034,777.321z M119.417,780.874c2.622,0.674,3.888-0.972,4.141-2.807
		c0.328-2.382-1.989,0.114-2.625-0.999c-0.071-0.124-0.348-0.131-0.53-0.19c-2.227-0.726-2.629,0.656-3.03,2.398
		C116.797,781.783,118.727,780.547,119.417,780.874z M344.193,1356.777c1.669-0.487,1.788-4.314-0.052-3.459
		c-3.455,1.606-7.008-1.744-6.437,1.126c0.17,0.852-0.146,2.406,1.274,2.118C340.837,1356.185,342.587,1355.076,344.193,1356.777z
		 M89.83,1268.539c1.165,0.432,2.278-0.066,1.953-0.941c-0.557-1.503,0.938-4.182-1.864-4.426c-2.559-0.223-1.955,2.476-2.415,3.787
		C86.734,1269.153,89.235,1267.835,89.83,1268.539z M421.158,1189.311c2.12,0.342,7.379-0.613,6.29-3.389
		c-0.487-1.242-1.482-0.617-2.214-0.556C422.966,1185.554,421.96,1187.254,421.158,1189.311z M351.142,164.436
		c-3.799-3.556-0.877-6.77-3.858-7.334c-3.034-0.574-0.216,2.605,0.361,5.617C348.04,164.775,349.249,164.926,351.142,164.436z
		 M340.531,1191.828c-1.976,0.348-3.619-0.705-5.437-0.727c-1.697-0.02-1.857,1.161-1.197,2.033c1.298,1.713,3.386,0.71,5.12,0.935
		C340.748,1194.293,339.936,1192.646,340.531,1191.828z M382.38,1322.583c1.234-0.115,10.941-1.382,10.863-2.59
		c-0.117-1.824-2.874,0.675-8.932,0.431C382.989,1320.371,382.793,1321.366,382.38,1322.583z M376.732,1356.423
		c1.96,1.443,3.867-0.189,5.525,0.647c1.723,0.87,0.995-0.825,1.362-1.289c0.678-0.858,0.226-1.074-0.746-1.456
		C380.179,1353.267,378.729,1355.245,376.732,1356.423z M390.879,291.349c0.177,2.416,1.992,3.81,1.644,5.614
		c-0.196,1.015-0.118,1.439,0.83,1.675c1.278,0.317,1.37-0.681,1.621-1.479C396.063,293.688,392.737,293.433,390.879,291.349z
		 M426.843,1182.023c-2.714-0.43-3.154-2.931-5.248-3.136C421.563,1183.083,421.563,1183.083,426.843,1182.023z M297.214,138.485
		c-0.292,3.425,2.987,7.978,3.891,7.162c0.37-0.333,0.293-0.671-0.063-0.945C298.987,143.117,298.281,140.739,297.214,138.485z
		 M409.025,174.595c-2.314-1.028-4.719-1.358-7.213-1.036C404.138,174.406,406.382,175.712,409.025,174.595z M334.831,79.973
		c2.081-3.347,1.946-6.428,2.142-9.441C335.497,73.281,335.247,76.283,334.831,79.973z M373.323,885.216
		c-0.126,0.038-0.252,0.076-0.379,0.114c0,4.237,0,8.473,0,12.71c0.126-0.001,0.252-0.002,0.379-0.002
		C373.323,893.763,373.323,889.489,373.323,885.216z M366.629,357.903c0.362-6.313,0.67-7.499-0.425-7.291
		c-0.272,0.052-0.718,0.654-0.647,0.819C366.34,353.261,365.278,355.357,366.629,357.903z M396.138,370.681
		c-1.362,2.772-0.41,5.52,0,8.275C396.138,376.197,396.138,373.439,396.138,370.681z M59.69,1393.543
		c-0.941-2.439,2.651-4.247,0.426-7.207C59.85,1389.024,58.503,1391.121,59.69,1393.543z"/>
	<path d="M261.164,960.577c3.202,5.885,3.991,59.631,4.073,60.631c1.129,13.833-1.495,49.336-1.495,49.336
		c11.946-5.618,9.092,10.705,11.585-32.783c0.748-13.044-2.641-66.78-2.641-66.78c0.171-1.362-1.248-2.738-1.11-4.937
		c4.681,4.213,6.782,65.792,4.85,93.279c-0.199,2.828-1.24,5.587-0.209,8.745c1.042,3.193,5.03-1.298,9.817,5.003
		c1.109-15.164,0.231-29.47,0.628-43.759c0.994,1.447,1.365,39.094,1.317,40.189c-0.203,4.614,2.61,1.971,2.343,5.32
		c-0.09,1.123,0.402,1.883,1.326,2.376c7.21,3.854,11,31.023-4.536,34.426c-9.245,2.025-17.431-6.422-13.341-12.489
		c1.638-2.429,2.286-5.468,4.707-7.489c0.23-0.192,0.874-1.227,1.168-1.86c1.616-3.481,1.887-1.397-9.782-9.642
		c-1.318-0.932-2.046-1.18-3.262,0.319c-26.32,32.438-24.82,88.288-26.353,91.51c-0.932,1.958,1.815,2.263,3.922,2.93
		c2.782,0.881,1.083,3.721,0.071,3.937c-3.635,0.777-4.74,3.322-4.547,6.649c0.098,1.69-0.663,3.202-0.918,4.92
		c1.303-0.339-0.084-1.636,1.204-1.986c0,1.001-1.844,27.498-6.492,50.755c-9.304,46.547-63.928,57.368-69.775,14.754
		c-0.861-6.272,4.625-8.936,4.949-14.57c-4.746,6.692-11.101,12.328-13.251,20.783c-0.159-0.513-0.327-1.053-0.632-2.038
		c-10.034,19.771-10.437,16.645-11.314,27.466c-0.049,0.605-0.15,1.4-0.781,1.325c-2.436-0.288,1.922-9.988,2.594-33.308
		c0.161-5.582,0.89-11.147,1.807-16.704c0.478,11.632-0.938,23.196-1.839,35.606c13.49-24.94,10.056-14.469,10.901-23.499
		c0.721-7.705,2.649-15.27,2.65-23.053c0-0.863,0.508-1.726,1.17-2.525c0.105,9.526-1.721,18.843-3.042,28.874
		c1.023-1.195,8.919-12.505,10.615-14.199c3.768-3.761,2.26-7.522,4.872-23.251c0.315-1.899,0.207-9.733,1.554-9.583
		c0.955,0.106,0.636,0.934,0.556,1.607c-0.984,8.204-0.726,16.554-2.906,24.619c-0.033,0.123,0.166,0.309,0.34,0.61
		c3.112-2.739,4.815-6.659,7.863-9.305c5.779-5.016,4.216-19.807,8.067-33.754c1.331,6.714-2.893,23.222-2.835,26.627
		c0.887,0.613,8.076-8.833,8.7-9.679c2.034-2.756,4.675-34.757,4.266-37.55c-0.079-0.54,0.386-1.256,0.999-1.245
		c2.833,0.052-3.318,33.363-3.521,37.191c6.231-6.965,12.246-13.342,18.719-19.298c-0.001,0.001-20.076,23.528-20.077,23.529
		c-9.482,11.547-10.869,10.671-10.974,14.64c-0.065,2.451-1.122,4.75-2.578,6.864c0.778-2.305,1.056-4.663,1.005-7.19
		c-3.291,5.781-9.796,9.331-11.212,16.621c2.312,0.026,3.313-1.954,4.982-2.728c3.915-1.816,10.236-0.769,13.712,1.83
		c4.496,3.363,7.114,12.538,1.902,15.946c-3.297,2.156-6.65,4.33-10.995,3.387c-1.402-0.304-3.025,2.021-2.464,3.344
		c2.65,6.256,2.124,1.981,10.116,7.531c1.552,1.078,3.097,3.137,5.265,2.379c4.655-1.627,9.655-2.767,12.785-7.181
		c7.577-10.686,5.335-4.506,8.341-17.471c3.546-15.294,2.986-31.581,4.679-37.8c0.841-3.09-0.569-6.199-0.189-9.351
		c0.122-1.014,2.053-26.664,1.217-35.053c-0.454-4.556-5.692-2.208-5.74-5.936c-0.069-5.361,6.094,0.629,6.328-4.98
		c0.081-1.935,0.772-3.848,0.413-5.842c-0.05-0.277-0.075-0.714,0.083-0.85c4.741-4.079,0.43-6.196,8.504-30.191
		c13.817-41.062,7.148-187.624,7.148-187.624c2.722,0.08,7.345,124.328-2.155,174.277c1.796-1.445,2.01-3.614,3.087-5.296
		c3.351-5.235,5.815-10.983,9.869-15.846c11.221-13.461-0.341-124.952-2.037-141.214c3.592,0.73,13.59,108.886,5.498,136.938
		c8.509-7.27,10.47-4.946,10.753-7.923c0.705-7.394,4.377-33.85,0.482-93.658c-0.757-11.626-2.097-13.811-0.725-15.607
		C261.234,960.622,261.164,960.577,261.164,960.577z"/>
	<path d="M236.462,1282.142c-12.007,12.773-24.819,23.768-38.32,33.955c-0.769-0.812-0.278-1.076-0.055-1.24
		c28.644-21.069,67.083-63.067,76.48-97.287c2.378-8.656,3.072,16.711-28.372,53.164c-10.01,11.604-10.149-2.91-22.031,175.518
		c-0.548,8.225-1.857,42.411-1.857,42.411C214.488,1488.11,236.462,1283.144,236.462,1282.142z"/>
	<path d="M268.785,810.604c0.491-0.081,1.069-0.166,0.949,0.587c-0.745,4.643-0.745,9.398-2.009,13.956
		c-0.685,2.47,10.557,13.41,8.715,15.424c-7.98-11.896-16.624-23.169-28.084-32.647c-0.084,1.82-0.149,3.214-0.215,4.653
		c-0.896-0.025-0.748-0.942-0.695-1.185c1.646-7.549-8.737-7.281-9.934-11.572c2.222,0.956,2.222,0.956,3.035-2.023
		c-0.595,5.506,5.406,4.378,6.42,8.731c1.934-4.524,4.763-125.58,4.763-125.58c3.076-0.528-2.163,112.21-2.417,116.014
		c-0.809,12.104-2.241,7.972,5.803,14.991c0.405,0.354,0.611,1.101,1.343,0.744c1.393-0.679,4.424-55.128,4.677-61.83
		c0.207-5.486,1.212-72.877,2.641-72.884c1.94-0.009,0.89,61.207-6.163,135.488c-0.148,1.56,0.007,0.447,8.897,11.414
		c1.805-4.753,1.285-9.652,2.282-14.284L268.785,810.604z"/>
	<path d="M263.331,1248.073c-11.422,120.528-17.025,232.735-17.025,232.735C242.832,1479.591,257.034,1277.466,263.331,1248.073z"/>
	<path d="M235.357,1487.657c0-67.318,10.022-176.467,14.926-201.926c-7.847,67.102-11.033,134.526-14.087,201.959
		C235.917,1487.679,235.637,1487.668,235.357,1487.657z"/>
	<path d="M209.383,1320.206c-5.753,58.015-7.616,116.3-11.705,174.443C195.291,1491.856,205.354,1319.169,209.383,1320.206z"/>
	<path d="M211.072,1487.325c-2.092-7.54,4.191-172.728,10.872-186.69C213.589,1411.532,211.007,1486.324,211.072,1487.325z"/>
	<path d="M180.876,1328.963c-8.365,57.048-9.633,114.329-14.82,171.285C165.997,1491.491,173.826,1333.261,180.876,1328.963z"/>
	<path d="M279.716,825.873C283.369,805.355,287.02,667,287.02,667C292.484,666.006,282.092,824.468,279.716,825.873z"/>
	<path d="M268.792,810.6c0.025-1,9.169-136.312,5.765-143.177c6.046,3.634-2.548,136.815-5.771,143.18
		C268.785,810.604,268.792,810.6,268.792,810.6z"/>
	<path d="M222.973,1057.065c8.49-65.393-3.747-166.333-3.747-166.333C225.801,910.866,232.969,1045.131,222.973,1057.065z"/>
	<path d="M298.537,666.155c6.285,4.881-2.542,132.186-6.264,141.445c-0.17-1,10.172-125.601,5.719-140.05
		C297.866,667.137,297.878,666.587,298.537,666.155z"/>
	<path d="M131.239,1501.72c0.481-49.426,6.074-98.367,14.409-147.053c0,0-10.459,74.379-13.267,140.615
		C132.288,1497.477,132.255,1499.647,131.239,1501.72z"/>
	<path d="M258.766,1451.902c0-33.676,12.759-175.182,12.759-176.185c0.989-0.049,1.259,0.377,1.17,1.004
		c-3.153,22.009-13.39,175.231-13.39,175.231C259.126,1451.935,258.946,1451.918,258.766,1451.902z"/>
	<path d="M208.478,880.901c1.467,6.717,12.223,100.209,4.623,137.979c-0.491,2.439-2.525,0.58-1.703-1.433
		C219.697,997.125,208.478,880.901,208.478,880.901z"/>
	<path d="M148.826,1500.269c-1.025-45.903,3.8-91.397,11.898-136.613C154.07,1408.937,150.023,1454.438,148.826,1500.269z"/>
	<path d="M111.908,1497.793c0-25.373,15.63-140.604,16.914-140.466c0,0-13.381,104.128-15.789,138.076
		C112.992,1495.97,113.142,1496.578,111.908,1497.793z"/>
	<path d="M193.046,844.707c11.24,38.33,13.429,141.117,7.035,144.768C204.51,940.85,201.47,892.643,193.046,844.707z"/>
	<path d="M181.491,1494.46c-1.622-40.195,1.37-80.131,5.495-120.012C184.777,1414.447,181.733,1454.406,181.491,1494.46z"/>
	<path d="M240.3,796.608c0.023-1,1.551-93.178,0.835-117.486c-0.085-2.876,2.137-4.658,1.89,17.038
		c-0.689,60.544-1.859,96.45-1.859,96.45C241.187,793.934,240.332,795.154,240.3,796.608z"/>
	<path d="M184.863,858.364c0.052,1,11.272,123.087,1.564,118.284c-1.193-0.59,0.242-1.647,0.484-2.488
		c5.472-18.984-2.329-106.809-2.485-110.57C184.364,862.08,183.053,860.467,184.863,858.364z"/>
	<path d="M112.254,1357.487c-5.745,40.958-12.344,81.838-13.484,123.333C98.056,1439.14,105.569,1398.367,112.254,1357.487z"/>
	<path d="M308.407,747.905c0.089,1.776,0.179,3.553,0.268,5.329c0.046-2.371,1.171-4.791-0.657-7.08
		c-0.711-0.89,0.478-2.205,0.454-3.371c-0.06-2.909,0.953-5.749,0.549-8.673c-0.266-1.92,2.139-2.073,2.05,0.045
		c-0.187,4.438,0.17,8.935-0.421,13.309c-5.538,40.978-9.34,147.318-2.914,29.071c0.398-7.313,0.43-14.642,1.243-21.968
		c-1.53,0.086-0.732,1.344-1.604,2.031c0.223-3.065,0.427-5.879,0.632-8.693C308.14,747.906,308.274,747.906,308.407,747.905z"/>
	<path d="M282.677,1597.259c-3.939-2.363,17.909-112.417,20.405-114.235C296.313,1521.027,286.395,1558.521,282.677,1597.259z"/>
	<path d="M287.527,1519.271c-9.179,38.74-15.214,64.111-12.425,77.248c0.55,2.593,2.544,2.397,1.118,3.314
		C264.795,1607.182,283.168,1521.64,287.527,1519.271z"/>
	<path d="M136.489,1229.863c0,34.196-5.131,69.9-11.077,91.867c4.919-30.459,10.15-60.879,9.814-91.901
		C135.647,1229.84,136.068,1229.852,136.489,1229.863z"/>
	<path d="M313.295,664.921c1.563,3.672-0.856,41.632-2.108,65.549c-0.156,2.978-2.199,1.357-2.107-0.183
		c2.14-35.907,2.658-56.479,3.331-57.689C313.589,670.477,313.227,667.535,313.295,664.921z"/>
	<path d="M86.463,1484.39c-2.779-15.436,3.229-54.703,6.081-84.827c0.085-0.9,0.114-1.758,1.549-1.9
		C91.228,1426.607,86.837,1455.344,86.463,1484.39z"/>
	<path d="M272.406,1523.498c-2.757,13.986-11.372,59.531-10.971,74.171c-4.746-6.122,8.71-67.868,10.235-74.484
		C271.915,1523.289,272.16,1523.393,272.406,1523.498z"/>
	<path d="M258.628,1518.736c-6.815,24.441-9.392,49.448-10.403,74.685c-1.206-0.091-1.301,0.196-1.022-11.341
		c0.295-12.168,2.437-12.799-0.098-12.861c-0.027-0.001-0.164-0.722-0.044-0.803c2.945-2,1.866-5.117,2.244-7.838
		C255.386,1516.777,257.68,1523.847,258.628,1518.736z"/>
	<path d="M177.459,970.919c3.779-24.373,0.169-48.719-0.437-73.061C179.144,922.222,182.628,946.583,177.459,970.919z"/>
	<path d="M230.956,891.755c-6.268-7.351-21.915-31.571-34.894-38.251C207.871,855.267,231.849,890.124,230.956,891.755z"/>
	<path d="M223.033,1538.723c-0.135,11.118-4.694,45.503-3.934,48.682c0,0-4.243,14.582,3.363-47.826
		c0.049-0.404,0.149-0.75,0.63-0.809L223.033,1538.723z"/>
	<path d="M215.714,742.783c-0.442,15.255-2.267,30.419-3.163,45.644C211.836,773.097,213.74,757.938,215.714,742.783z"/>
	<path d="M207.701,1186.389c1.619-15.456,1.572-31.042,3.516-46.474C212.588,1144.07,209.657,1181.742,207.701,1186.389z"/>
	<path d="M175.151,805.112c-1.616-12.208-0.669-24.382,0.503-36.555C175.788,780.747,175.491,792.935,175.151,805.112z"/>
	<path d="M210.356,1548.334c-2.042,27.237-2.736,30.312-1.216,36.179c0.491,1.893-1.466,2.133-1.648,0.407
		c-1.349-12.786,1.298-22.835,1.525-33.69C209.036,1550.345,209.313,1549.555,210.356,1548.334z"/>
	<path d="M176.405,1537.669c-2.082,28.792-2.313,27.573-1.378,29.715c0.319,0.73,0.926,1.95-0.34,2.152
		c-3.86,0.615,0.476-28.126,1.095-31.988C175.99,1537.589,176.197,1537.629,176.405,1537.669z"/>
	<path d="M195.854,1547.124c0.254,15.135-2.013,21.731-0.548,30.116c0.135,0.773,0.278,1.494-0.564,1.58
		C191.384,1579.161,195.35,1548.126,195.854,1547.124z"/>
	<path d="M219.686,690.45c-0.868,12.589-1.736,25.179-2.603,37.745C216.005,726.971,217.713,694.199,219.686,690.45z"/>
	<path d="M185.018,1547.703c0,12.887-1.281,10.713-1.2,24.172c0.004,0.631,0.598,1.854-0.659,1.807
		c-1.064-0.04-1.143-1.144-1.041-2.071c1.03-9.336-0.848-3.902,2.479-23.922C184.737,1547.693,184.878,1547.698,185.018,1547.703z"
		/>
	<path d="M164.82,787.12c0.717-12.202,1.433-24.404,2.15-36.606c0.867,12.291-0.708,24.469-1.089,36.702
		C165.527,787.184,165.173,787.152,164.82,787.12z"/>
	<path d="M176.161,767.854c-1.315-3.421-0.639-6.769-0.302-9.98c0.514-4.903,0.119-19.62,1.452-19.636
		c1.139-0.013,0.412-1.444-0.518,26.818C176.763,765.994,176.38,766.922,176.161,767.854z"/>
	<path d="M152.95,1538.942c0.545,7.721-1.915,15.376-0.625,23.115C148.563,1554.31,152.539,1546.64,152.95,1538.942z"/>
	<path d="M234.156,1564.474c1.492,1.341-0.03,0.641-1.217,22.09c-0.197,3.555,1.605,3.908-0.162,4.198
		c-3.11,0.511-0.342-14.553,0.793-24.523c0.07-0.618-0.279-1.41,0.641-1.717L234.156,1564.474z"/>
	<path d="M304.565,830.71c0.419,9.217-0.778,18.327-2.31,27.413C302.196,848.932,304.203,839.888,304.565,830.71z"/>
	<path d="M93.291,1396.562c1.235-9.408,2.47-18.816,3.705-28.224c0.236,0.031,0.472,0.062,0.708,0.094
		c-1.16,9.417-2.319,18.835-3.479,28.253C93.914,1396.644,93.602,1396.603,93.291,1396.562z"/>
	<path d="M232.722,902.671c1.526,8.337,3.472,16.621,3.209,25.188C234.608,919.496,233.807,911.066,232.722,902.671z"/>
	<path d="M162.701,1549.383c1.319,2.009-0.024,3.396-0.021,4.849c0.008,3.199-0.383,6.397,0.08,9.603
		c0.343,2.377-2.587,1.491-2.29-0.079C161.338,1559.167,160.768,1554.357,162.701,1549.383z"/>
	<path d="M189.722,1353.35c-0.691,6.574-0.778,13.208-2.073,19.722c-0.246-0.022-0.492-0.044-0.738-0.066
		c0.61-6.578,1.22-13.157,1.83-19.736C189.068,1353.297,189.395,1353.324,189.722,1353.35z"/>
	<path d="M141.104,1541.514c0.209,12.428,1.414,12.242-0.093,12.293C139.283,1553.865,139.381,1545.321,141.104,1541.514z"/>
	<path d="M188.002,800.143c0.234-5.762-0.321-11.567,0.554-17.346C188.672,788.577,188.391,794.352,188.002,800.143z"/>
	<path d="M305.96,778.797c-0.852-4.793,0.718-9.378,0.506-14.116c0.302,0.026,0.605,0.052,0.907,0.078
		C306.902,769.438,306.431,774.118,305.96,778.797z"/>
	<path d="M259.673,947.614c-0.541-3.604-1.082-7.207-1.623-10.811c0.255-0.041,0.51-0.082,0.765-0.123
		c0.991,3.531,1.358,7.163,1.638,10.808C260.193,947.531,259.933,947.572,259.673,947.614z"/>
	<path d="M100.264,1344.434c-0.164,3.996,0.136,8.014-1.787,11.672C99.072,1352.215,99.668,1348.324,100.264,1344.434z"/>
	<path d="M177.311,736.177c-0.719-2.813-0.75-5.645-0.299-8.979C178.73,729.028,177.711,730.054,177.311,736.177z"/>
	<path d="M208.289,881.079c-2.242-2.887-0.851-6.361-1.562-9.499c0.472,3.131,2.008,6.06,1.752,9.321L208.289,881.079z"/>
	<path d="M164.092,1541.929c0.091,2.491-0.172,4.931-1.338,7.193C162.225,1546.552,163.588,1544.323,164.092,1541.929z"/>
	<path d="M184.035,857.685c0.08-2.894-0.991-5.715-0.477-8.619C184.477,850.35,184.896,855.964,184.035,857.685z"/>
	<path d="M262.475,675.759c-0.154-1.189-0.144-2.163-0.436-3.037c-0.857-2.561,1.618-1.997,1.845-0.57
		C264.08,673.381,264.513,674.833,262.475,675.759z"/>
	<path d="M303.431,804.453c-0.645-4.035,0.936-7.243,0.811-10.583C304.486,797.219,304.355,800.539,303.431,804.453z"/>
	<path d="M223.092,1538.771c-0.57-3.22,0.724-6.173,1.499-9.199c0.265,3.168-0.676,6.155-1.558,9.15
		C223.033,1538.723,223.092,1538.771,223.092,1538.771z"/>
	<path d="M146.862,1351.274c-1.039-2.959,0.169-5.597,1.214-8.258C147.672,1345.769,147.267,1348.522,146.862,1351.274z"/>
	<path d="M261.234,960.622c-1.418-1.261-0.189-3.198-1.181-4.612c-0.669-0.953,1.727-1.609,1.569-0.121
		c-0.165,1.56,0.673,3.224-0.461,4.685C261.164,960.577,261.234,960.622,261.234,960.622z"/>
	<path d="M251,1284.005c-0.768-2.827,0.4-5.484,0.292-8.271c0.259,0.023,0.519,0.046,0.778,0.069
		C251.713,1278.537,251.356,1281.271,251,1284.005z"/>
	<path d="M234.211,1564.522c0.05-1.947-0.365-3.327,1.464-6.581c0.131,2.321,0.221,4.624-1.52,6.532
		C234.156,1564.474,234.211,1564.522,234.211,1564.522z"/>
	<path d="M425.877,1310.839c-0.16,1-20.868,83.128-25.368,120.421c-0.856,7.091-15.39,102.476-15.534,122.028
		c-0.021,2.898-0.272,5.932-1.377,9.164C380.534,1542.949,415.145,1315.229,425.877,1310.839z"/>
	<path d="M412.696,1536.51c0.495-3.595-0.536-7.262,0.602-10.797c0.33-1.026,0.512-2.619-0.814-3.504
		c-0.585-0.391-0.353-1.081-0.209-1.236c3.024-3.245,2.227-7.517,2.511-11.225c3.216-41.987,21.595-153.778,31.783-175.29
		C429.893,1400.912,420.573,1468.594,412.696,1536.51z"/>
	<path d="M527.568,1224.039c-51.664-6.763-61.926-56.974-60.925-57.215c3.849-0.926,1.184,4.556,11.837,22.621
		c3.444,5.839,8.417,10.062,13.755,13.901c1.463,1.052,8.321,9.711,14.748,10.921c4.963,0.934,4.008,5.568,16.099,5.408
		c2.094-0.028,7.761,1.16,9.725-1.476c2.069-2.777,5.119,1.096,2.468,3.064C533.002,1222.948,530.757,1224.751,527.568,1224.039z"/>
	<path d="M432.708,1522.276c4.074-61.405,14.542-121.578,24.425-181.83c0.275,0.036,0.551,0.072,0.826,0.108
		c-5.325,45.682-17.281,102.282-23.651,178.997C434.234,1520.434,434.73,1521.566,432.708,1522.276z"/>
	<path d="M433.784,1327.922c-19.099,98.419-25.947,158.064-33.652,213.258c-0.045,0.32-0.372,0.601-1.019,0.78
		C401.99,1518.137,424.512,1345.212,433.784,1327.922z"/>
	<path d="M546.378,1363.473c-9.295-12.132-31.376-119.749-27.463-133.676C521.229,1258.442,530.152,1309.807,546.378,1363.473z"/>
	<path d="M512.563,1234.516c3,45.099,11.372,87.582,22.142,120.822C519.462,1316.505,512.615,1276.112,512.563,1234.516z"/>
	<path d="M477.046,1377.966c-5.941,46.246-11.36,92.571-17.02,138.87C460.927,1488.903,471.002,1405.37,477.046,1377.966z"/>
	<path d="M449.353,1518.844c2.304-51.046,9.777-101.418,18.518-151.632C460.618,1417.633,453.597,1468.081,449.353,1518.844z"/>
	<path d="M516.243,1321.39c-5.673,0.03,3.761,14.448,2.187,19.232c-8.531-13.276-20.1-101.754-13.887-110.776
		C504.543,1242.591,507.831,1321.167,516.243,1321.39z"/>
	<path d="M472.086,1492.183c2.315-38.301,6.319-76.407,13.4-114.155C480.136,1415.978,476.434,1454.118,472.086,1492.183z"/>
	<path d="M485.309,1478.9c-2.047-27.009,3.335-53.398,6.708-79.959C490.026,1425.61,485.603,1452.079,485.309,1478.9z"/>
	<path d="M496.596,1459.261c-1.095-4.204,3.587-35.663,3.669-36.664c0.16-1.972,1.218-2.265,3.132-2.383
		C497.956,1423.769,499.483,1458.859,496.596,1459.261z"/>
	<path d="M477.106,1312.775c1.527,0.548,2.065,2.089,2.664,3.252c5.242,10.154,15.326,18.168,18.69,24.376
		c-5.737-3.918-21.917-24.33-21.481-27.515L477.106,1312.775z"/>
	<path d="M476.979,1312.887c-2.711-2.275-3.49-5.665-5.128-8.56c2.233,2.531,3.943,5.37,5.254,8.447
		C477.106,1312.775,476.979,1312.887,476.979,1312.887z"/>
	<path d="M447.78,883.398c0,0,8.573-127.057,4.057-178.738c-0.064-0.734-0.281-1.512,0.427-2.414
		C459.171,744.253,451.713,840.982,447.78,883.398z"/>
	<path d="M437.57,687.595c3.882,27.084,3.724,144.214-1.234,176.426c0,0,4.751-103.4,0.474-174.295
		C436.758,688.88,436.757,688.248,437.57,687.595z"/>
	<path d="M466.102,700.169c9.388,4.279-0.063,157.713-2.057,158.924C464.045,859.093,472.208,722.626,466.102,700.169z"/>
	<path d="M481.4,943.916c-17.236,19.477-13.907,12.928-17.051,40.346c-0.91,7.938-3.958,29.768-3.762,38.162
		c0.016,0.67,0.632,2.043-0.938,1.893c-2.994-0.285,6.335-60.957,5.867-61.957c-13.202,18.089-27.546,35.2-30.629,59.147
		c-6.22-21.954,44.485-79.471,46.511-77.569C481.399,943.94,481.4,943.916,481.4,943.916z"/>
	<path d="M495.185,725.069c5.186,8.469-6.555,165.542-9.448,168.564C487.597,864.966,495.185,800.948,495.185,725.069z"/>
	<path d="M476.389,863.515c0,0,5.815-76.083,5.185-138.51c-0.123-12.197-1.996-10.866-0.134-11.969
		C487.249,735.05,480.183,832.296,476.389,863.515z"/>
	<path d="M506.903,740.684c4.681,7.142-4.35,122.46-9.486,137.752C497.416,878.436,508.406,787,506.903,740.684z"/>
	<path d="M420.839,798.3c0.061-1,3.664-119.384,1.676-118.563C429.118,677.007,421.444,788.201,420.839,798.3z"/>
	<path d="M516.645,780.156c0.131,19.249-1.166,38.428-3.03,57.58C514.14,818.519,515.728,799.354,516.645,780.156z"/>
	<path d="M520.431,782.731c0.414,8.184-0.418,16.29-1.649,24.37C518.42,798.92,519.987,790.861,520.431,782.731z"/>
	<path d="M453.026,984.474c0.36,6.967-2.739,13.459-2.978,20.344c-0.319-0.044-0.639-0.087-0.958-0.131
		c1.035-6.776,2.071-13.553,3.106-20.329C452.472,984.396,452.749,984.435,453.026,984.474z"/>
	<path d="M462.341,875.003c0.097-4.968,0.19-9.936,1.441-14.799C463.998,865.2,463.421,870.124,462.341,875.003z"/>
	<path d="M484.585,903.072c0.299-2.629,0.597-5.258,0.896-7.887c0.258,0.03,0.516,0.061,0.774,0.091
		C485.224,897.875,486.544,900.724,484.585,903.072z"/>
	<path d="M516.99,769.725c0,2.699,0,5.397,0,8.004C516.018,776.628,515.807,773.711,516.99,769.725z"/>
	<path d="M365.41,360.092c0.098,5.677,0.905,11.331,0.699,17.018C365.329,371.455,364.448,365.804,365.41,360.092z"/>
	<path d="M312.287,203.922c1.093-0.147,1.201,0.992,1.761,1.582c3.247,3.419-0.208,8.048,2.534,10.21
		c2.392,1.886,1.178-1.922,3.136-1.244c0.736,0.255,1.758,1.171,1.516,1.538c-1.089,1.655,0.731,4.077-1.314,5.251
		c-1.997,1.146-4.243,1.153-6.389,0.288C306.221,218.6,309.414,204.307,312.287,203.922z"/>
	<path d="M317.244,200.94c1.497-0.027,2.972-0.072,3.436,1.275c1.877,5.449-1.023,7.733-2.223,4.895
		c-0.698-1.652-1.494-3.134-3.318-3.726c-0.919-0.298-0.464-0.782-0.299-1.326C315.287,200.59,316.492,201.036,317.244,200.94z"/>
	<path d="M317.193,154.097c-0.212,1.775-1.085,3.122-1.643,4.58c-0.365,0.954-1.051,0.799-1.631,0.56
		c-1.045-0.43-0.38-1.039-0.017-1.571C314.773,156.386,315.053,154.577,317.193,154.097z"/>
	<path d="M241.553,142.712c0.757-0.658,2.008-0.666,2.229-2.055c0.186-1.172,1.484-1.352,2.327-1.94
		c0.784-0.547,1.458,0.028,1.775,0.367c0.844,0.904-0.48,0.898-0.764,1.358c-0.188,0.304-0.353,0.622-0.99,1.752
		c6.112-4.531,8.871,0.426,12.203,3.096c6.812,5.459,7.698,19.101,1.678,18.499c-3.787-0.379-6.414,2.879-5.671,6.574
		c0.167,0.831,0.182,1.4-0.429,1.678c-1.167,0.531-2.786,7.401,3.018,7.16c2.225-0.092,3.37-2.406,4.527-4.194
		c0.67-1.036,0.754-3.717,2.268-3.206c3.646,1.228-5.355,16.515-10.318,14.821c-5.405-1.845-13.091-7.003-12.324-12.17
		c0.372-2.508-1.396-4.736-2.619-6.901c-0.384-0.681-0.967-1.294-0.848-2.06c0.776-4.997-2.688-12.272,2.248-18.002
		c1.176-1.366,1.317-3.182,1.753-4.85C241.61,142.645,241.553,142.712,241.553,142.712z"/>
	<path d="M333.937,1177.075c-1.406-1.881-4.928-2.085-7.295-0.572c-2.752,1.76-4.623-4.022-7.968-0.839
		c-1.371,1.305-3.524-1.157-0.974-1.99c2.199-0.718,4.272-2.225,6.795-0.531c2.133,1.432,4.663-0.652,6.992,0.389
		C333.007,1174.212,335.745,1173.769,333.937,1177.075z"/>
	<path d="M364.968,1179.009c-1.378-0.617-2.238,0.806-3.443,0.995c-1.545-3.804,3.26-3.163,4.268-2.687
		c0.697,0.328-0.461,1.17-0.891,1.736C364.895,1179.057,364.968,1179.009,364.968,1179.009z"/>
	<path d="M163.945,1160.11c-0.517,0.823-0.605,2.39-1.775,2.169c-2.799-0.528-2.236-4.164-0.512-3.939
		C162.774,1158.487,163.717,1158.768,163.945,1160.11z"/>
	<path d="M80.577,1289.171c-2.736,0.309-5.039-0.875-7.325-2.116c2.675-0.108,5.032,0.879,7.316,2.119
		C80.57,1289.173,80.577,1289.171,80.577,1289.171z"/>
</g>
</svg>
