<?xml version="1.0"?>
<svg xmlns:rdf="http://www.w3.org/1999/02/22-rdf-syntax-ns#" xmlns="http://www.w3.org/2000/svg" xmlns:cc="http://creativecommons.org/ns#" xmlns:dc="http://purl.org/dc/elements/1.1/" xmlns:svg="http://www.w3.org/2000/svg" id="svg7931" viewBox="0 0 385.4 394.72" version="1.0">
  <g id="layer1" transform="translate(-57.383 -49.733)">
    <path id="path16987" stroke="#000" stroke-width="1px" fill="none" d="m90.075 79.386l11.195-5.672c-1.745-6.598-1.19-8.043 5.84-10.501 5.41 0.509 8.25 3.857 8.79 9.757-3.88 8.823-8.08 5.912-11.83 5.704l-11.191 5.671c-1.873-1.367-4.155-2.609-2.804-4.959z"/>
  </g>
  <g id="layer4" transform="translate(-57.383 -49.733)">
    <path id="path8016" d="m161.78 162.42c-26.16 19.77-43.02 41.47-20.38 71.34 15.11 21.35 38.42 22.33 36.94 38.21 13.45-9.93 31.64-8.69 45.23 14.02 15.04 25.15 7.81 43.34-8.28 49.04 18.97 3.49 17.23 25.26 31.84 54.14 24.25 28.52 53.04 39.28 73.89 35.67 34.65-4.29 50.26-14.29 72.61-29.94 26.98-20.43 51.85-41.53 47.13-71.97 0.49-24.13-13.97-40.79-33.75-54.78-18.76-13.22-36.41-10.59-41.4-29.93-11.36 9.32-25.96 12.46-54.15-10.19-30.01-28.72-9.14-26.6-5.73-34.4-18.24-0.92-13.83-20.79-28.66-36.94-22.98-22.38-52.39-24.54-87.26-9.56" fill-rule="evenodd" stroke="#000" stroke-width="1px" fill="#fff"/>
    <path id="path8030" d="m164.98 165.41c-23.62 18.92-41.6 40.85-18.87 68.9 15.23 20.06 35.27 17.61 34.65 32.64 12.16-9.51 32.75-4.15 46.36 17.33 17.43 27.51 8.18 44.76-4.13 50.26 17.99 3.14 13.6 26.92 28.73 54.11 24.16 26.76 53.01 34.78 72.42 31.19 32.35-4.34 47.81-15.21 70.6-30.19 24.36-19.55 46.07-39.71 42.71-72.27-3.26-20.27-18.29-35.9-37.56-48.96-18.27-12.34-30.9-7.17-36.53-25.41-10.21 8.91-26.97 9.46-54.55-11.73-29.6-26.9-14.34-30.16-10.24-36.3-15.92-2.62-8.91-20.81-23.63-35.96-22.68-20.97-50.76-23.13-82.8-8.67" fill-rule="evenodd" stroke="#000" stroke-width=".94279px" fill="#fff"/>
    <path id="path8124" d="m85.573 77.537l-4.954 4.955c16.317 2.634 24.811 17.838 34.001 28.828-14.36 9.6-19.014-18.09-29.272-5.86l-10.246-13.398c-2.181-3.426-6.356-8.365-7.994-12.948-3.94 2.937-6.971-4.349-8.017-8.517-1.685-6.715-2.596-19.267 4.188-16.48 0.863-1.351 0.628-4.02 4.279-2.026 4.018-5.13 11.855 1.536 15.088 5.855 4.748 6.343 3.842 4.643 5.855 9.908 2.142 6.9-0.377 7.974-2.928 9.008l0.226 1.126h-0.226" fill-rule="evenodd" stroke="#000" stroke-width="1px" fill="#fff"/>
    <path id="path8130" d="m244.11 263.32c-9.37-0.99-8.97 7.68-3.15 15.54 8.48 11.47 25.74 25.05 23.42 40.31 0.37 9.02-6.05 12.57-16.89 9.91-3.04-2.08-6.06-5.3-0.68-9.01 5.17-1.4 4.84 2.11 4.73 5.41 7.16 3.65 9.74-1.42 8.11-8.56-2.01-8.54-8.62-15.25-14.64-22.07-15.84-22.02-11.81-28.91-8.33-32.88 3.45-1.63 6.9-3.57 10.36-1.13 2.26 2.33 3.7 4.12 2.25 5.86-3.13 2.63-5.87 0.43-5.18-3.38z" fill-rule="evenodd" stroke="#000" stroke-width="1px" fill="#fff"/>
    <path id="path8132" d="m349.5 261.97c3.35 7.54-12.61 1.71-15.99-0.9l-30.4-23.42c-12.79-8.85-14.06-6.7-20.04-5.4-1.45 2.05-4.38 3.43 0.45 8.33 4.51 2.11 4.74-0.06 5.18-2.03l-3.61-2.48c2.75-5.83 9.43-0.81 13.07 2.26 11 9.43 22.2 20.05 32.65 26.12 9.09 5.1 14.7 4.84 20.27 3.49 3.49-1.45 3.77-6.16 2.25-8.9-1.88-3.37-5.92-4.66-9.91-3.37-3.4 2.69 0.25 5.48 6.08 6.3z" fill-rule="evenodd" stroke="#000" stroke-width="1px" fill="#fff"/>
    <path id="path8134" d="m264.83 281.56l-2.71-14.41c13.11-18.39 27.14-23.99 41.44-25.67l-3.15 19.36-35.58 20.72z" fill-rule="evenodd" stroke="#000" stroke-width="1px" fill="#fff"/>
    <path id="path8136" d="m300.41 307.68c7.64-7.96 16.15-15.41 29.72-19.81 6.91 10.79 13.82 21.21 20.72 37.83 14.43 25.64 41.78 46.6 50.89 59.45l-21.61 13.96c-14.34-19.02-9.08-28.52-41.44-60.35-13.5-9.38-28.15-17.2-38.28-31.08z" fill-rule="evenodd" stroke="#000" stroke-width="1px" fill="#fff"/>
    <path id="path8138" d="m304.01 310.84c9.31-10.25 18.62-15.99 27.92-20.27" fill-rule="evenodd" stroke="#000" stroke-width="1px" fill="#fff"/>
    <g id="g15943" fill="#fff">
      <path id="path8150" d="m134.39 224.84c-5.47 43.95 51.29 49.68 45.23 68.79l3.82 1.27c24.3-22.51 45.68 15.56 45.7 28.55 10.02-13.91-13.96-75.87-51.24-51.35 1.53-17.69-23.02-15.53-43.23-46.39" fill-rule="evenodd" stroke="#000" stroke-width="1px" fill="#fff"/>
    </g>
    <path id="path8152" d="m214.65 334.39c0.6 2.19-0.16 5.2 3.18 5.74l1.28 11.46c-1.14 2.03-2.88 5.41 1.27 7.01 17.25 2.39 13.17 27.39 25.48 43.95 15.2 21.11 33.81 38.8 67.52 41.4 20.44-1.14 38.96 0.27 84.07-33.76 46.01-39.64 39.69-54.57 43.95-73.9m-225.44-1.69c20.75 6.06 19.84 41.33 32.65 55.96 38.82 44.31 71.57 36.7 105.84 27.02 47.21-21.46 78.6-51.06 87.83-81.07" fill-rule="evenodd" stroke="#000" stroke-width="1px" fill="#fff"/>
    <path id="path8128" d="m306.49 193.51c0.88 2.49 1.53 4.82-1.13 4.96v13.96c1.83 4.1 2.34 7.28-3.38 6.42-19.88-21.97 2.27-17.67 4.28-26.01" fill-rule="evenodd" stroke="#000" stroke-width="1px" fill="#fff"/>
    <path id="path16989" d="m102.24 81.638l11.19-5.672c-1.74-6.598-1.19-8.043 5.84-10.501 5.41 0.509 8.25 3.857 8.79 9.757-3.88 8.823-8.08 5.912-11.83 5.704l-11.19 5.671c-1.87-1.367-4.16-2.609-2.8-4.959z" fill-rule="evenodd" stroke="#000" stroke-width="1px" fill="#fff"/>
    <path id="path8140" d="m96.178 91.72l19.112-10.191" fill-rule="evenodd" stroke="#000" stroke-width="1px" fill="#fff"/>
    <path id="path8054" d="m84.359 91.97l-11.465 5.096c1.404 6.674 0.779 8.094-6.369 10.194-5.374-0.79-8.043-4.27-8.281-10.194 4.318-8.614 8.368-5.494 12.102-5.096l11.465-5.095c1.801 1.46 4.017 2.817 2.548 5.095z" fill-rule="evenodd" stroke="#000" stroke-width="1px" fill="#fff"/>
    <path id="path10794" d="m89.764 99.402l-11.465 5.098c1.404 6.68 0.778 8.09-6.37 10.19-5.374-0.78-8.043-4.27-8.28-10.19 4.318-8.617 8.367-5.496 12.102-5.098l11.465-5.096c1.801 1.461 4.017 2.818 2.548 5.096z" fill-rule="evenodd" stroke="#000" stroke-width="1px" fill="#fff"/>
    <path id="path8050" d="m234.39 236.31l-136.3-142.68c-8.69-9.368-15.507-13.127-24.205-8.917 16.136-11.04 29.725-11.889 40.765-2.547l74.55 66.154 78.32 69.51c-12.06-0.96-22.75 7.66-33.13 18.48z" fill-rule="evenodd" stroke="#000" stroke-width="1px" fill="#fff"/>
    <path id="path8142" stroke="#858585" stroke-width="1px" fill="none" d="m305.73 303.18l-36.94-43.94-168.79-169.43v-0.001"/>
    <path id="path8144" stroke="#858585" stroke-width="1px" fill="none" d="m311.46 298.09l-34.39-47.13-172.61-163.7"/>
    <path id="path8146" stroke="#858585" stroke-width="1px" fill="none" d="m319.75 291.72l-32.49-47.13-178.34-160.51v-0.004h1.27"/>
    <path id="path8148" stroke="#858585" stroke-width="1px" fill="none" d="m327.39 287.9l-30.57-45.22-182.81-160.51v-0.004"/>
    <path id="path13720" d="m97.141 91.625l15.749-10.74" fill-rule="evenodd" stroke="#000" stroke-width="1px" fill="#fff"/>
    <path id="path13722" d="m62.948 54.329c4.859 2.455 9.643 7.541 10.833 11.986 1.704 6.369 2.909 9.936 0.295 12.231-2.104 1.848-4.973-0.644-7.624-2.865-3.04-2.547-4.891-6.346-4.572-9.112 0.543-4.697 5.156-1.703 6.337-0.252 2.561 3.151 3.287 6.392 1.934 6.234" fill-rule="evenodd" stroke="#000" stroke-width=".87563px" fill="#fff"/>
    <path id="path13724" d="m72.796 78.737l13.605-2.148" fill-rule="evenodd" stroke="#000" stroke-width="1px" fill="#fff"/>
  </g>
  <metadata>
    <rdf:RDF>
      <cc:Work>
        <dc:format>image/svg+xml</dc:format>
        <dc:type rdf:resource="http://purl.org/dc/dcmitype/StillImage"/>
        <cc:license rdf:resource="http://creativecommons.org/licenses/publicdomain/"/>
        <dc:publisher>
          <cc:Agent rdf:about="http://openclipart.org/">
            <dc:title>Openclipart</dc:title>
          </cc:Agent>
        </dc:publisher>
        <dc:title>violin</dc:title>
        <dc:date>2007-08-14T09:08:30</dc:date>
        <dc:description>My line-art violin colored with a gradient.</dc:description>
        <dc:source>http://openclipart.org/detail/10067/violin-by-papapishu-10067</dc:source>
        <dc:creator>
          <cc:Agent>
            <dc:title>papapishu</dc:title>
          </cc:Agent>
        </dc:creator>
        <dc:subject>
          <rdf:Bag>
            <rdf:li>clip art</rdf:li>
            <rdf:li>clipart</rdf:li>
            <rdf:li>image</rdf:li>
            <rdf:li>media</rdf:li>
            <rdf:li>music</rdf:li>
            <rdf:li>musical instrument</rdf:li>
            <rdf:li>png</rdf:li>
            <rdf:li>public domain</rdf:li>
            <rdf:li>svg</rdf:li>
            <rdf:li>violin</rdf:li>
          </rdf:Bag>
        </dc:subject>
      </cc:Work>
      <cc:License rdf:about="http://creativecommons.org/licenses/publicdomain/">
        <cc:permits rdf:resource="http://creativecommons.org/ns#Reproduction"/>
        <cc:permits rdf:resource="http://creativecommons.org/ns#Distribution"/>
        <cc:permits rdf:resource="http://creativecommons.org/ns#DerivativeWorks"/>
      </cc:License>
    </rdf:RDF>
  </metadata>
</svg>
